<?xml version="1.0" encoding="UTF-8" standalone="no"?>
<svg
   width="64"
   height="64"
   version="1"
   id="svg136"
   sodipodi:docname="mppatch-installer.svg"
   inkscape:version="1.3.1 (91b66b0783, 2023-11-16, custom)"
   xmlns:inkscape="http://www.inkscape.org/namespaces/inkscape"
   xmlns:sodipodi="http://sodipodi.sourceforge.net/DTD/sodipodi-0.dtd"
   xmlns:xlink="http://www.w3.org/1999/xlink"
   xmlns="http://www.w3.org/2000/svg"
   xmlns:svg="http://www.w3.org/2000/svg">
  <sodipodi:namedview
     id="namedview136"
     pagecolor="#ffffff"
     bordercolor="#666666"
     borderopacity="1.0"
     inkscape:showpageshadow="2"
     inkscape:pageopacity="0.0"
     inkscape:pagecheckerboard="0"
     inkscape:deskcolor="#d1d1d1"
     inkscape:zoom="13.534466"
     inkscape:cx="32.103224"
     inkscape:cy="34.984757"
     inkscape:window-width="2256"
     inkscape:window-height="1428"
     inkscape:window-x="0"
     inkscape:window-y="0"
     inkscape:window-maximized="1"
     inkscape:current-layer="svg136" />
  <defs
     id="defs4">
    <linearGradient
       xlink:href="#a"
       id="e"
       x1="365.11"
       x2="324.44"
       y1="472.16"
       y2="539.7"
       gradientTransform="translate(8.363 -261.33)"
       gradientUnits="userSpaceOnUse" />
    <linearGradient
       id="a">
      <stop
         stop-color="#eee"
         id="stop1" />
      <stop
         offset="1"
         id="stop2" />
    </linearGradient>
    <linearGradient
       id="b">
      <stop
         stop-color="#debc85"
         id="stop3" />
      <stop
         offset="1"
         stop-color="#c9aa78"
         id="stop4" />
    </linearGradient>
    <linearGradient
       xlink:href="#b"
       id="c"
       x1="-24.768"
       x2="37.34"
       gradientTransform="translate(-145.47 -1973.547) scale(15.1574)"
       gradientUnits="userSpaceOnUse" />
    <clipPath
       id="h"
       clipPathUnits="userSpaceOnUse">
      <path
         fill="#debc85"
         stroke-width=".682"
         d="m19.031 38.485 10.232-10.67 6.265 6.007-10.232 10.67z"
         id="path4" />
    </clipPath>
    <clipPath
       id="d"
       clipPathUnits="userSpaceOnUse">
      <rect
         width="941.435"
         height="224.269"
         x="-520.855"
         y="-826.131"
         fill="url(#c)"
         stroke-width="11.736"
         rx="94.472"
         transform="rotate(127.8)"
         id="rect4" />
    </clipPath>
    <filter
       id="f"
       width="1.0380842"
       height="1.064876"
       x="-0.019042096"
       y="-0.032438002">
      <feGaussianBlur
         stdDeviation="1.259"
         id="feGaussianBlur4" />
    </filter>
  </defs>
  <path
     d="m4 5 16 56h24L60 5h-.57L44 59H20L4.57 5H4Z"
     opacity=".2"
     id="path5" />
  <path
     fill="#fecd38"
     d="m4 4 16 56h24L60 4H44L32 48 20 4Z"
     id="path6" />
  <path
     fill="#fff"
     d="m4 4 16 56h15.4L20 4Z"
     opacity=".2"
     id="path7" />
  <path
     fill="#fff"
     d="m4 4 .285 1H20l12 44L44 5h15.715L60 4H44L32 48 20 4H4z"
     opacity=".2"
     id="path8" />
  <g
     transform="rotate(10 23.413 44.86) scale(.9438)"
     id="g135">
    <g
       id="g"
       clip-path="url(#d)"
       display="inline"
       transform="rotate(-174.2 31.238 29.806) scale(.0581)">
      <path
         fill-opacity="0"
         d="M0 0h1056v816H0Z"
         id="path9" />
      <path
         fill="#acf"
         stroke="#000"
         stroke-linejoin="round"
         stroke-width="2"
         d="M-9.53-12.906h1085.228V822.15H-9.53Z"
         id="path10" />
      <path
         fill="#dbc545"
         d="M1225.825 287.26c2.752-2.808 10.71-3.8 12.08 2.898 1.37 6.696-2.195 26.35-3.86 37.283-1.666 10.932-2.936 23.591-6.132 28.31-3.196 4.718-11.012 2.717-13.046.002-2.034-2.716-.246-8.17.842-16.295 1.087-8.125 3.998-23.753 5.684-32.452 1.686-8.7 1.68-16.938 4.432-19.746z"
         id="path11" />
      <path
         fill="#ffc2d9"
         d="M1255.87 321.532c3.674-10.954 10.435-44.935 10.582-56.76.147-11.826-5.503-11.08-9.7-14.191-4.197-3.11-10.19-3.602-15.482-4.473-5.292-.872-11.057-1.004-16.267-.756-5.21.247-11.758.25-14.992 2.241-3.233 1.992-2.204.872-4.41 9.71-2.204 8.837-7.616 32.674-8.819 43.316-1.202 10.643-1.335 16.056 1.604 20.538 2.94 4.481 8.363 4.793 16.033 6.35 7.67 1.556 23.077 3.984 29.986 2.989 6.908-.996 7.79 1.99 11.464-8.964z"
         id="path12" />
      <path
         fill="#6a4c2b"
         d="M1258.493 305.472c3.908-3.21 8.249-31.552 7.958-40.7-.29-9.15-5.503-11.081-9.7-14.192-4.197-3.11-10.19-3.601-15.48-4.472-5.292-.872-11.058-1.004-16.268-.756-5.21.247-11.759.25-14.992 2.241-3.234 1.992-2.663 2.346-4.41 9.709-1.747 7.363-7.84 31.604-6.073 34.47 1.767 2.866 12.11-17.87 16.677-17.273 4.566.595 6.254 19.26 10.722 20.847 4.467 1.589 10.82-13.005 16.08-11.317 5.262 1.688 11.58 24.653 15.486 21.443z"
         id="path13" />
      <path
         fill="#fff"
         d="M1215.01 257.588a.6.6 0 0 1 .599-.599h9.07a.598.598 0 0 1 .6.599v2.394a.6.6 0 0 1-.6.598h-9.07a.598.598 0 0 1-.598-.598zm16.866 14.104a.598.598 0 0 1 .782-.32l8.378 3.506a.597.597 0 0 1 .322.782l-.923 2.205a.598.598 0 0 1-.783.32l-8.377-3.507a.597.597 0 0 1-.32-.782zm6.661-11.542a.595.595 0 0 1 .426-.728l8.766-2.282a.6.6 0 0 1 .73.427l.609 2.31a.595.595 0 0 1-.426.728l-8.766 2.282a.6.6 0 0 1-.73-.427zm13.675 7.84a.599.599 0 0 1 .63.566l.472 9.071a.6.6 0 0 1-.567.63l-2.394.126a.599.599 0 0 1-.63-.567l-.472-9.07a.6.6 0 0 1 .567-.63zm2.446-14.592a.597.597 0 0 1 .799-.274l8.156 3.981a.595.595 0 0 1 .273.797l-1.05 2.142a.598.598 0 0 1-.798.274l-8.156-3.98a.595.595 0 0 1-.274-.798zm-23.441 3.498a.598.598 0 0 1-.685-.5l-1.39-8.954a.607.607 0 0 1 .5-.688l2.373-.378a.598.598 0 0 1 .686.5l1.39 8.954a.604.604 0 0 1-.5.688zM1208 270.037a.597.597 0 0 1 .252-.808l8.04-4.2a.6.6 0 0 1 .81.252l1.112 2.12a.597.597 0 0 1-.252.808l-8.041 4.201a.6.6 0 0 1-.809-.252z"
         id="path14" />
      <path
         fill="#dbc545"
         d="M95.35 77.971c1.664-4.66 8.775-6.787 12.21 3.782 3.436 10.568 6.435 42.108 8.4 59.63 1.966 17.521 4.841 36.91 3.391 45.498-1.45 8.587-9.316 10.21-12.09 6.026-2.772-4.183-2.934-17.263-4.549-31.128-1.615-13.865-3.912-38.092-5.14-52.06-1.227-13.968-3.887-27.087-2.223-31.748zm29.55-1.226c1.665-4.661 8.777-6.787 12.212 3.782 3.435 10.568 6.435 42.108 8.4 59.63 1.965 17.52 4.84 36.91 3.39 45.497-1.45 8.588-9.316 10.21-12.089 6.027-2.773-4.183-2.934-17.264-4.55-31.128-1.614-13.865-3.912-38.092-5.14-52.06-1.226-13.968-3.887-27.087-2.222-31.748z"
         id="path15" />
      <path
         fill="#13ceff"
         d="M160.45 111.845c.252-18.552-5.084-74.477-9.85-93.165C145.837-.007 138.859 1.85 131.86-.28c-7-2.13-15.911 5.703-23.253 6.186-7.34.483-14.192-4.205-20.796-3.288-6.603.917-15.397 4.516-18.825 8.788-3.428 4.273-2.541 2.147-1.742 16.848.8 14.701 4.673 54.211 6.539 71.36 1.866 17.148-1.098 25.5 4.657 31.532 5.755 6.03 18.097 4.845 29.873 4.653 11.776-.192 32.093-1.815 40.782-5.807 8.69-3.992 11.105.405 11.356-18.147z"
         id="path16" />
      <path
         fill="#10a9d2"
         d="M122.307 15.282c1.773-4.253 8.89-6.356 12.03 3.101 3.14 9.458 5.307 37.868 6.807 53.644 1.5 15.775 3.857 33.214 2.196 41.008-1.66 7.793-9.515 9.462-12.162 5.754-2.646-3.707-2.47-15.517-3.717-27.999-1.246-12.481-2.905-34.305-3.764-46.89-.859-12.584-3.163-24.365-1.39-28.618zm-36.464 3.583c1.774-4.253 8.89-6.356 12.03 3.101 3.14 9.457 5.307 37.868 6.807 53.643 1.5 15.775 3.857 33.214 2.196 41.008-1.66 7.794-9.515 9.462-12.162 5.755-2.646-3.707-2.47-15.518-3.716-28-1.247-12.48-2.905-34.304-3.765-46.89-.859-12.584-3.163-24.364-1.39-28.617Z"
         id="path17" />
      <path
         fill="#dbc545"
         d="M481.415 62.282c-2.733-3.718-9.543-3.618-9.662 6.853-.12 10.47 5.877 39.667 8.947 55.972 3.069 16.304 5.852 34.544 9.47 41.853 3.618 7.309 10.952 6.543 12.237 1.998 1.285-4.545-2.15-16.347-4.526-29.266-2.377-12.918-6.988-35.344-9.733-48.246-2.744-12.901-4-25.445-6.733-29.164zm-26.22 7.255c-2.733-3.718-9.543-3.618-9.663 6.853-.119 10.47 5.878 39.668 8.947 55.972 3.07 16.304 5.852 34.545 9.47 41.853 3.618 7.309 10.953 6.543 12.238 1.998 1.285-4.544-2.15-16.347-4.526-29.265-2.377-12.919-6.989-35.345-9.733-48.246-2.744-12.902-4-25.446-6.733-29.165z"
         id="path18" />
      <path
         fill="#fff31d"
         d="M433.652 111.14c-5.292-16.604-15.91-68.38-16.846-86.524-.935-18.144 5.684-18.45 11.232-22.342 5.549-3.893 15.496.626 22.059-1.016 6.563-1.642 11.282-7.793 17.317-8.837 6.035-1.043 14.722-.295 18.893 2.576 4.17 2.87 2.813 1.21 6.132 14.65 3.32 13.44 10.73 50.047 13.785 65.988 3.054 15.942 7.934 22.61 4.542 29.659-3.392 7.048-14.527 9.473-24.894 12.63-10.368 3.158-28.608 7.446-37.311 6.316-8.704-1.131-9.616 3.504-14.909-13.1z"
         id="path19" />
      <path
         fill="#e1d71a"
         d="M440.66 13.56c-2.716-3.32-9.525-3.199-9.689 6.19-.164 9.388 5.706 35.537 8.705 50.14 3 14.604 5.704 30.945 9.29 37.48 3.585 6.536 10.922 5.814 12.226 1.733 1.304-4.08-2.08-14.646-4.4-26.217-2.32-11.571-6.836-31.656-9.524-43.21-2.689-11.554-3.891-22.795-6.607-26.116zm32.92-7.092c-2.716-3.321-9.525-3.199-9.69 6.19-.163 9.388 5.707 35.537 8.706 50.14 3 14.603 5.703 30.944 9.29 37.48 3.585 6.535 10.921 5.813 12.226 1.733 1.304-4.081-2.08-14.646-4.4-26.218-2.321-11.57-6.836-31.655-9.524-43.21-2.689-11.554-3.891-22.794-6.608-26.115z"
         id="path20" />
      <path
         fill="#dbc545"
         d="M331.644 61.183c1.571-4.248 7.59-5.742 10.044 4.393 2.454 10.136 3.725 39.878 4.68 56.421.955 16.543 2.597 34.899 1.051 42.839-1.546 7.94-8.175 8.91-10.326 4.799s-1.775-16.37-2.58-29.465c-.806-13.095-1.777-35.94-2.255-49.105s-2.186-25.634-.614-29.882Zm24.713.915c1.572-4.248 7.59-5.742 10.045 4.394 2.454 10.135 3.724 39.877 4.68 56.42.955 16.543 2.597 34.9 1.051 42.839-1.546 7.94-8.175 8.91-10.326 4.799-2.152-4.111-1.775-16.37-2.58-29.465-.807-13.095-1.777-35.94-2.255-49.105-.479-13.164-2.186-25.634-.615-29.882z"
         id="path21" />
      <path
         fill="#ef4423"
         d="M384.658 97.446c.935-17.353-1.332-70.091-4.579-87.922-3.247-17.83-9.143-16.58-14.902-19.062-5.758-2.482-13.503 4.23-19.65 4.169-6.146-.06-11.681-4.928-17.23-4.531-5.547.397-13.028 3.153-16.056 6.915-3.028 3.761-2.205 1.832-2.113 15.653.093 13.821 1.781 51.087 2.668 67.274.887 16.187-1.914 23.801 2.654 29.85 4.568 6.049 14.916 5.8 24.753 6.443 9.836.642 26.858.542 34.267-2.59 7.41-3.131 9.253 1.155 10.188-16.199z"
         id="path22" />
      <path
         fill="#d03b1e"
         d="M356.596 4.367c1.646-3.859 7.669-5.331 9.92 3.744 2.25 9.074 2.948 35.828 3.584 50.703.635 14.876 1.92 31.37.23 38.551-1.692 7.182-8.313 8.196-10.377 4.54-2.064-3.657-1.455-14.703-2.007-26.477-.553-11.774-1.084-32.324-1.309-44.168-.225-11.843-1.688-23.035-.041-26.893zm-30.576.808c1.646-3.858 7.67-5.33 9.92 3.744 2.25 9.075 2.948 35.828 3.584 50.704.636 14.876 1.92 31.369.23 38.55-1.692 7.182-8.313 8.196-10.377 4.54-2.064-3.656-1.455-14.702-2.007-26.476-.553-11.774-1.084-32.325-1.309-44.168-.225-11.844-1.688-23.035-.041-26.894Z"
         id="path23" />
      <path
         fill="#dbc545"
         d="M679.835 56.405c2.526-4.04 9.204-4.265 9.745 6.735.542 11-4.149 41.98-6.495 59.267-2.346 17.286-4.333 36.594-7.581 44.451-3.249 7.858-10.467 7.407-11.91 2.693-1.444-4.715 1.443-17.287 3.247-30.981 1.805-13.694 5.414-37.49 7.58-51.184 2.165-13.694 2.887-26.94 5.414-30.98zm25.987 6.358c2.526-4.041 9.203-4.265 9.745 6.735.542 11-4.15 41.98-6.495 59.266-2.346 17.287-4.333 36.594-7.582 44.452-3.248 7.857-10.466 7.407-11.91 2.692-1.443-4.715 1.444-17.287 3.248-30.981 1.805-13.694 5.413-37.49 7.579-51.184 2.166-13.694 2.888-26.94 5.414-30.98z"
         id="path24" />
      <path
         fill="#9831ff"
         d="M728.618 105.45c4.512-17.71 12.815-72.646 12.996-91.763.18-19.117-6.318-19.118-11.912-22.941-5.595-3.824-15.159 1.408-21.656 0-6.497-1.409-11.371-7.646-17.327-8.45-5.956-.806-14.438.4-18.408 3.62-3.97 3.22-2.707 1.409-5.415 15.696-2.707 14.288-8.482 53.126-10.829 70.03-2.346 16.904-6.857 24.15-3.247 31.394 3.61 7.245 14.619 9.255 24.906 12.072 10.286 2.817 28.333 6.442 36.815 4.832 8.482-1.61 9.565 3.218 14.077-14.49z"
         id="path25" />
      <path
         fill="#7024bc"
         d="M717.791 3.22c2.527-3.622 9.204-3.823 9.746 6.037.542 9.86-4.15 37.63-6.495 53.126-2.347 15.495-4.333 32.802-7.582 39.845-3.248 7.043-10.466 6.64-11.91 2.413-1.443-4.226 1.444-15.495 3.248-27.77 1.804-12.276 5.413-33.605 7.579-45.88 2.165-12.275 2.888-24.149 5.414-27.77zm-32.544-5.862c2.526-3.622 9.204-3.823 9.745 6.037.542 9.86-4.149 37.63-6.495 53.126-2.346 15.495-4.333 32.802-7.581 39.845-3.249 7.043-10.467 6.64-11.91 2.413-1.444-4.226 1.443-15.495 3.247-27.77 1.805-12.275 5.414-33.605 7.58-45.88 2.165-12.275 2.887-24.149 5.414-27.77z"
         id="path26" />
      <path
         fill="#dbc545"
         d="M216.224 66.796c3.104-4.273 12.64-5.098 14.82 5.866 2.179 10.965-.589 42.405-1.744 59.923-1.156 17.518-1.539 37.028-5.19 45.187-3.65 8.16-14.048 8.358-16.717 3.767-2.67-4.59-.138-17.437.7-31.31.838-13.873 2.972-38.022 4.327-51.928 1.355-13.905.7-27.232 3.804-31.505z"
         id="path27" />
      <path
         fill="#ef4423"
         d="M254.255 110.06c2.325-17.815 4.765-72.955 3.898-92.207-.867-19.252-4.458-18.028-9.099-23.304-4.64-5.276-13.318-6.75-18.745-8.352-5.428-1.602-9.87-1.986-13.819-1.261-3.948.724-6.916 2.015-9.874 5.608-2.957 3.594-5.598 1.81-7.872 15.955-2.275 14.144-4.555 51.378-5.776 68.913-1.22 17.536-5.22 28.824-1.547 36.3 3.673 7.475 14.789 6.38 23.586 8.553 8.797 2.171 22.657 6.177 29.199 4.477 6.541-1.701 7.725 3.132 10.05-14.682z"
         id="path28" />
      <path
         fill="#f90"
         d="M258.317 9.506c.822 3.236 1.143 18.491-.375 22.366-1.518 3.874-3.61.737-8.733.882-5.123.144-15.4-1.035-22.005-.016-6.605 1.02-12.52 3.868-17.624 6.129-5.105 2.26-11.012 10.068-13.005 7.437-1.992-2.63-.894-18.934 1.047-23.221 1.942-4.287 5.427-1.472 10.602-2.5 5.176-1.03 12.987-2.321 20.451-3.675 7.465-1.354 19.397-3.214 24.337-4.448 4.94-1.233 4.483-6.189 5.305-2.954zm-63.761 59.36c3.993-4.247 15.781-8.57 22.639-10.6 6.857-2.03 12.225-.913 18.506-1.583 6.28-.67 15.681-5.172 19.178-2.435 3.497 2.737 2.092 14.273 1.803 18.854-.289 4.582-.785 7.66-3.536 8.633-2.751.973-8.6-1.61-12.972-2.795-4.373-1.185-7.854-4.569-13.263-4.313-5.409.256-13.58 4.33-19.192 5.85-5.613 1.52-12.288 5.206-14.482 3.27-2.194-1.934-2.674-10.634 1.319-14.88zm-4.376 37.258c2.642-1.968 12.916-3.553 20.45-3.674 7.535-.122 17.123 3.13 24.757 2.946 7.633-.184 18.471-6.95 21.046-4.053 2.576 2.897-2.498 17.76-5.594 21.435-3.096 3.675-8.345.71-12.982.616-4.636-.094-9.174-.253-14.84-1.181s-14.448-3.06-19.155-4.386c-4.707-1.326-6.806-1.619-9.086-3.57-2.28-1.95-7.239-6.165-4.596-8.133z"
         id="path29" />
      <path
         fill="#dbc545"
         d="M586.592 68.501c-2.572-4.531-11.203-6.203-13.834 4.52-2.631 10.725-1.969 42.276-1.951 59.822.017 17.547-.786 37.007 2.055 45.457 2.841 8.449 12.292 9.573 14.993 5.24 2.7-4.333 1.155-17.35 1.212-31.239.056-13.888-.46-38.124-.873-52.09-.412-13.967.971-27.178-1.602-31.71z"
         id="path30" />
      <path
         fill="#9fef16"
         d="M549.423 108.19c-1.064-17.945-.029-73.067 1.897-92.159 1.926-19.092 5.122-17.553 9.657-22.393 4.536-4.84 12.52-5.534 17.555-6.646 5.035-1.111 9.1-1.098 12.651-.024 3.552 1.073 6.176 2.622 8.656 6.464 2.48 3.842 4.989 2.301 6.224 16.588 1.235 14.287 1.112 51.564 1.187 69.133.075 17.57 3.05 29.166-.735 36.282-3.785 7.116-13.837 5.036-21.972 6.415-8.135 1.378-20.987 4.132-26.84 1.855-5.853-2.276-7.216 2.431-8.28-15.515z"
         id="path31" />
      <path
         fill="#fff31d"
         d="M551.663 7.706c-.939 3.148-2.132 18.31-.98 22.302 1.154 3.994 3.243 1.057 7.897 1.657 4.655.6 14.079.343 20.03 1.946 5.951 1.603 11.166 4.967 15.679 7.673 4.513 2.706 9.428 11.006 11.397 8.564 1.969-2.442 1.932-18.773.418-23.215s-4.852-1.949-9.502-3.435-11.683-3.468-18.397-5.48c-6.714-2.014-17.464-4.93-21.887-6.598-4.424-1.669-3.716-6.563-4.655-3.414zm54.529 64.788c-3.384-4.585-13.858-9.94-19.98-12.572-6.12-2.633-11.073-2-16.75-3.226-5.677-1.227-13.967-6.547-17.31-4.134-3.345 2.413-2.748 14.026-2.755 18.613-.008 4.588.262 7.697 2.708 8.911 2.447 1.214 7.922-.837 11.972-1.627s7.418-3.85 12.326-3.113c4.908.738 12.104 5.522 17.123 7.535 5.018 2.014 10.877 6.28 12.988 4.548 2.11-1.731 3.061-10.35-.322-14.935zm1.783 37.488c-2.289-2.195-11.547-4.689-18.397-5.481-6.85-.792-15.769 1.592-22.706.728-6.937-.865-16.402-8.568-18.917-5.912-2.515 2.655 1.226 17.907 3.827 21.842 2.6 3.935 7.553 1.45 11.778 1.77 4.226.32 8.366.566 13.577.147 5.212-.42 13.33-1.76 17.693-2.66 4.363-.901 6.29-1.006 8.481-2.745s6.953-5.494 4.664-7.69z"
         id="path32" />
      <path
         fill="#dbc545"
         d="M820.696 71.959c-2.572-4.532-11.203-6.203-13.834 4.52-2.631 10.724-1.969 42.275-1.951 59.822.017 17.546-.787 37.007 2.055 45.456 2.841 8.45 12.292 9.574 14.993 5.24 2.7-4.332 1.155-17.35 1.211-31.238.057-13.888-.46-38.124-.872-52.09-.412-13.968.971-27.179-1.602-31.71z"
         id="path33" />
      <path
         fill="#13ceff"
         d="M783.527 111.648c-1.064-17.946-.029-73.067 1.897-92.16 1.926-19.091 5.122-17.553 9.657-22.393s12.52-5.534 17.555-6.645c5.034-1.112 9.1-1.098 12.651-.025 3.552 1.073 6.176 2.623 8.656 6.465 2.48 3.842 4.989 2.3 6.224 16.587 1.235 14.287 1.112 51.564 1.187 69.134.075 17.569 3.05 29.165-.735 36.281-3.785 7.116-13.837 5.037-21.972 6.415-8.135 1.378-20.987 4.132-26.84 1.856-5.854-2.277-7.216 2.43-8.28-15.515z"
         id="path34" />
      <path
         fill="#9831ff"
         d="M785.767 11.163c-.939 3.148-2.132 18.31-.98 22.303 1.154 3.993 3.243 1.056 7.897 1.657 4.655.6 14.079.342 20.03 1.945 5.951 1.603 11.166 4.967 15.679 7.673 4.512 2.707 9.427 11.006 11.397 8.565 1.969-2.442 1.932-18.774.418-23.216-1.514-4.441-4.852-1.948-9.502-3.434-4.65-1.486-11.683-3.468-18.397-5.481-6.714-2.013-17.464-4.93-21.887-6.598-4.424-1.669-3.716-6.562-4.655-3.414zm54.529 64.788c-3.384-4.584-13.858-9.939-19.98-12.572-6.121-2.633-11.073-2-16.75-3.226s-13.967-6.547-17.311-4.133c-3.344 2.413-2.747 14.025-2.754 18.613-.008 4.587.261 7.697 2.708 8.91 2.447 1.215 7.922-.837 11.972-1.627s7.418-3.85 12.326-3.112c4.908.737 12.104 5.521 17.123 7.535 5.018 2.014 10.876 6.279 12.988 4.548 2.11-1.732 3.061-10.351-.322-14.936zm1.783 37.489c-2.29-2.196-11.547-4.69-18.397-5.482-6.85-.792-15.769 1.592-22.706.728-6.937-.864-16.402-8.567-18.917-5.912-2.515 2.655 1.226 17.907 3.827 21.843 2.6 3.935 7.553 1.45 11.778 1.77 4.226.319 8.365.565 13.577.146 5.212-.419 13.33-1.76 17.693-2.66 4.363-.901 6.29-1.006 8.481-2.744 2.191-1.74 6.953-5.495 4.664-7.69z"
         id="path35" />
      <path
         fill="#dbc545"
         d="M926.799 70.642c-1.768-4.317-8.388-6.002-10.977 4.109-2.589 10.11-3.679 39.96-4.557 56.556-.88 16.596-2.493 34.992-.716 43.018 1.778 8.025 9.062 9.203 11.38 5.137 2.318-4.066 1.78-16.397 2.53-29.532.75-13.134 1.581-36.063 1.971-49.278.39-13.214 2.137-25.693.369-30.01zm-27.109.166c-1.767-4.316-8.387-6.001-10.976 4.11-2.589 10.11-3.678 39.96-4.557 56.556-.88 16.595-2.493 34.991-.716 43.017 1.778 8.026 9.062 9.203 11.38 5.137 2.318-4.065 1.78-16.396 2.53-29.53.75-13.136 1.582-36.064 1.972-49.28.39-13.214 2.136-25.693.368-30.01z"
         id="path36" />
      <path
         fill="#f90"
         d="M869 105.468c-1.204-17.467.744-70.396 4.124-88.216C876.504-.568 882.987.87 889.28-1.45c6.294-2.319 14.86 4.662 21.604 4.789 6.743.126 12.767-4.597 18.859-4.029 6.09.569 14.327 3.566 17.689 7.439 3.36 3.872 2.438 1.908 2.478 15.795.04 13.886-1.431 51.283-2.239 67.523-.808 16.24 2.343 23.977-2.607 29.917-4.95 5.94-16.307 5.374-27.094 5.72-10.786.346-29.465-.274-37.626-3.646-8.162-3.373-10.141.878-11.344-16.59z"
         id="path37" />
      <path
         fill="#d88100"
         d="M898.839 12.785c-1.846-3.927-8.47-5.59-10.847 3.46-2.377 9.051-2.869 35.915-3.414 50.845-.545 14.93-1.786 31.465.143 38.733 1.929 7.27 9.204 8.49 11.431 4.878 2.228-3.611 1.446-14.73 1.932-26.545.486-11.816.859-32.45.984-44.346.126-11.895 1.617-23.097-.23-27.025zm33.557 1.745c-1.846-3.928-8.47-5.591-10.846 3.46-2.377 9.05-2.869 35.914-3.414 50.844-.545 14.93-1.787 31.465.142 38.734 1.93 7.268 9.205 8.489 11.432 4.878 2.227-3.612 1.446-14.731 1.932-26.546s.858-32.45.984-44.346c.126-11.895 1.616-23.097-.23-27.025z"
         id="path38" />
      <path
         fill="#dbc545"
         d="M1034.89 65.738c-2.732-3.718-9.543-3.618-9.662 6.853-.12 10.47 5.877 39.667 8.947 55.972 3.07 16.304 5.852 34.545 9.47 41.853 3.618 7.309 10.952 6.543 12.237 1.998 1.286-4.545-2.15-16.347-4.526-29.266-2.376-12.918-6.988-35.344-9.732-48.246-2.745-12.901-4.001-25.445-6.734-29.164zm-26.22 7.256c-2.733-3.72-9.543-3.619-9.662 6.852-.12 10.47 5.877 39.668 8.946 55.972 3.07 16.304 5.853 34.545 9.47 41.853 3.619 7.309 10.953 6.543 12.238 1.998 1.285-4.544-2.15-16.347-4.526-29.265-2.377-12.919-6.988-35.345-9.733-48.246-2.744-12.902-4-25.446-6.733-29.164z"
         id="path39" />
      <path
         fill="#9fef16"
         d="M987.127 114.596c-5.292-16.604-15.91-68.38-16.845-86.524-.936-18.144 5.683-18.45 11.232-22.342 5.548-3.893 15.496.626 22.058-1.016 6.563-1.642 11.282-7.793 17.317-8.837 6.035-1.043 14.722-.295 18.893 2.576 4.171 2.87 2.813 1.21 6.133 14.65 3.32 13.44 10.73 50.047 13.784 65.989 3.054 15.94 7.935 22.61 4.543 29.658-3.393 7.048-14.528 9.473-24.895 12.63-10.368 3.158-28.608 7.446-37.311 6.316-8.703-1.131-9.616 3.504-14.909-13.1z"
         id="path40" />
      <path
         fill="#8fd613"
         d="M994.136 17.016c-2.716-3.32-9.526-3.198-9.69 6.19-.164 9.388 5.706 35.537 8.705 50.14 3 14.604 5.704 30.945 9.29 37.48 3.586 6.536 10.922 5.814 12.226 1.733 1.305-4.08-2.08-14.646-4.4-26.217-2.32-11.571-6.835-31.656-9.524-43.21-2.688-11.554-3.891-22.795-6.607-26.116zm32.92-7.092c-2.717-3.321-9.526-3.199-9.69 6.19-.164 9.388 5.706 35.537 8.705 50.14 3 14.603 5.704 30.944 9.29 37.48 3.585 6.535 10.922 5.814 12.226 1.733 1.304-4.08-2.08-14.646-4.4-26.218-2.32-11.57-6.836-31.655-9.524-43.21-2.689-11.554-3.891-22.794-6.607-26.115z"
         id="path41" />
      <path
         fill="#dbc545"
         d="M-5.555 74.595c2.567-3.962 9.762-4.506 10.779 5.912 1.017 10.419-2.826 40.069-4.677 56.6-1.852 16.53-3.236 34.962-6.432 42.584-3.196 7.623-11 7.553-12.743 3.148-1.743-4.405.877-16.486 2.286-29.58 1.408-13.092 4.366-35.866 6.163-48.977 1.798-13.11 2.057-25.724 4.624-29.687zm28.285 4.748c2.568-3.963 9.763-4.507 10.78 5.911 1.017 10.419-2.826 40.069-4.678 56.6-1.85 16.53-3.235 34.962-6.43 42.585-3.197 7.622-11.001 7.552-12.744 3.147-1.743-4.405.877-16.486 2.286-29.58 1.408-13.092 4.366-35.866 6.163-48.977 1.798-13.11 2.057-25.724 4.624-29.686z"
         id="path42" />
      <path
         fill="#9fef16"
         d="M49.003 118.745c4.172-17.04 10.97-69.617 10.413-87.778-.557-18.162-7.568-17.84-13.754-21.193-6.186-3.353-16.298 2.09-23.363 1.074C15.234 9.834 9.73 4.153 3.273 3.684c-6.457-.469-15.56 1.098-19.717 4.352-4.157 3.254-2.865 1.472-5.224 15.173-2.36 13.701-7.063 50.866-8.93 67.034-1.866 16.167-6.448 23.272-2.269 29.972 4.18 6.7 16.136 8.062 27.345 10.227 11.208 2.164 30.82 4.71 39.908 2.761 9.088-1.95 10.446 2.581 14.617-14.458z"
         id="path43" />
      <path
         fill="#8fd613"
         d="M33.303 22.21c2.584-3.565 9.78-4.087 10.752 5.249.972 9.336-2.997 35.938-4.919 50.767-1.922 14.83-3.385 31.363-6.612 38.212-3.228 6.849-11.03 6.824-12.755 2.882-1.723-3.94.948-14.785 2.412-26.53 1.464-11.746 4.519-32.178 6.373-43.942 1.853-11.763 2.166-23.073 4.75-26.638zm-35.341-3.951c2.583-3.565 9.78-4.087 10.751 5.249.972 9.336-2.997 35.937-4.918 50.767-1.922 14.83-3.385 31.363-6.613 38.212-3.228 6.849-11.03 6.824-12.754 2.882-1.724-3.941.948-14.785 2.412-26.53 1.464-11.746 4.519-32.179 6.372-43.942 1.854-11.763 2.166-23.073 4.75-26.638z"
         id="path44" />
      <path
         fill="#dbc545"
         d="M964.786 306.548c-1.698-4.661-8.954-6.787-12.459 3.781-3.505 10.569-6.565 42.109-8.57 59.63s-4.939 36.91-3.46 45.498c1.48 8.588 9.506 10.21 12.335 6.027 2.83-4.184 2.994-17.264 4.642-31.129 1.648-13.865 3.992-38.092 5.244-52.06 1.252-13.968 3.967-27.086 2.268-31.747zm-30.151-1.227c-1.698-4.66-8.954-6.787-12.459 3.782-3.505 10.569-6.565 42.109-8.57 59.63s-4.94 36.91-3.46 45.498c1.48 8.587 9.506 10.21 12.335 6.027 2.83-4.184 2.994-17.264 4.642-31.129 1.648-13.865 3.992-38.092 5.244-52.06 1.252-13.968 3.967-27.087 2.268-31.748z"
         id="path45" />
      <path
         fill="#9831ff"
         d="M898.363 340.421c-.256-18.552 5.188-74.477 10.05-93.164 4.862-18.688 11.981-16.832 19.122-18.961 7.141-2.13 16.234 5.703 23.724 6.186 7.49.483 14.48-4.205 21.219-3.288 6.737.917 15.71 4.516 19.207 8.789s2.593 2.146 1.777 16.847c-.815 14.702-4.767 54.211-6.671 71.36s1.12 25.501-4.752 31.532c-5.871 6.03-18.464 4.845-30.48 4.653-12.014-.192-32.744-1.814-41.61-5.806-8.866-3.993-11.33.404-11.586-18.148z"
         id="path46" />
      <path
         fill="#7024bc"
         d="M937.281 243.859c-1.809-4.253-9.07-6.357-12.274 3.1-3.203 9.458-5.414 37.869-6.945 53.644-1.53 15.775-3.935 33.214-2.24 41.008 1.694 7.794 9.708 9.462 12.408 5.755 2.7-3.708 2.52-15.518 3.792-28 1.273-12.481 2.964-34.305 3.84-46.89.877-12.584 3.229-24.365 1.42-28.617zm37.205 3.582c-1.81-4.253-9.072-6.356-12.275 3.101-3.203 9.458-5.414 37.868-6.945 53.644-1.53 15.775-3.935 33.214-2.24 41.008 1.694 7.793 9.708 9.462 12.408 5.754 2.7-3.707 2.52-15.517 3.793-27.999 1.272-12.481 2.964-34.305 3.84-46.89.877-12.584 3.228-24.365 1.419-28.618z"
         id="path47" />
      <path
         fill="#dbc545"
         d="M570.884 290.859c2.788-3.72 9.736-3.619 9.858 6.852.122 10.47-5.996 39.668-9.128 55.972-3.132 16.304-5.971 34.545-9.663 41.853-3.691 7.309-11.174 6.543-12.486 1.998-1.311-4.544 2.194-16.347 4.618-29.265 2.425-12.919 7.13-35.345 9.93-48.246 2.8-12.902 4.083-25.446 6.87-29.164zm26.752 7.255c2.788-3.719 9.737-3.618 9.859 6.852.121 10.471-5.997 39.668-9.129 55.972-3.131 16.305-5.97 34.545-9.662 41.854-3.692 7.308-11.175 6.542-12.486 1.998-1.311-4.545 2.193-16.347 4.618-29.266 2.425-12.919 7.13-35.344 9.93-48.246 2.8-12.902 4.082-25.446 6.87-29.164z"
         id="path48" />
      <path
         fill="#13ceff"
         d="M619.616 339.716c5.4-16.604 16.233-68.38 17.188-86.523.955-18.145-5.799-18.45-11.46-22.343-5.661-3.893-15.81.627-22.507-1.016-6.695-1.642-11.51-7.793-17.668-8.836-6.158-1.044-15.021-.296-19.277 2.575-4.255 2.871-2.87 1.21-6.257 14.65-3.386 13.44-10.947 50.048-14.064 65.989-3.116 15.941-8.095 22.61-4.634 29.658 3.46 7.049 14.821 9.474 25.4 12.631 10.578 3.158 29.188 7.446 38.068 6.315 8.88-1.13 9.811 3.504 15.211-13.1z"
         id="path49" />
      <path
         fill="#10a9d2"
         d="M612.465 242.136c2.772-3.32 9.72-3.198 9.887 6.19.167 9.389-5.822 35.537-8.882 50.14-3.06 14.604-5.82 30.945-9.478 37.48-3.659 6.536-11.144 5.814-12.475 1.733-1.33-4.08 2.122-14.646 4.49-26.217 2.367-11.571 6.974-31.655 9.717-43.21 2.743-11.554 3.97-22.795 6.741-26.116zm-33.588-7.092c2.772-3.32 9.72-3.199 9.887 6.19.167 9.388-5.822 35.537-8.882 50.14-3.06 14.604-5.82 30.945-9.478 37.48-3.659 6.536-11.144 5.814-12.475 1.733-1.33-4.08 2.122-14.646 4.49-26.217 2.367-11.571 6.974-31.656 9.717-43.21 2.743-11.554 3.97-22.795 6.741-26.116z"
         id="path50" />
      <path
         fill="#dbc545"
         d="M825.569 299.145c-1.604-4.248-7.745-5.742-10.248 4.394-2.503 10.135-3.799 39.877-4.773 56.42-.974 16.543-2.648 34.9-1.07 42.839 1.577 7.94 8.34 8.91 10.535 4.799 2.195-4.111 1.81-16.37 2.632-29.465.822-13.095 1.811-35.94 2.298-49.105.488-13.164 2.23-25.634.626-29.882zm-25.215.915c-1.604-4.248-7.744-5.742-10.248 4.394-2.503 10.136-3.798 39.877-4.772 56.42-.974 16.544-2.649 34.9-1.071 42.839 1.577 7.94 8.34 8.91 10.535 4.799 2.195-4.111 1.81-16.37 2.632-29.465.822-13.095 1.811-35.94 2.299-49.105.487-13.164 2.229-25.634.625-29.882z"
         id="path51" />
      <path
         fill="#ef4423"
         d="M771.481 335.408c-.954-17.353 1.357-70.091 4.669-87.922 3.312-17.83 9.328-16.58 15.203-19.062 5.875-2.482 13.777 4.23 20.048 4.169 6.271-.06 11.919-4.928 17.579-4.53 5.66.397 13.293 3.153 16.382 6.914 3.09 3.761 2.25 1.832 2.157 15.653-.094 13.822-1.815 51.087-2.72 67.274-.904 16.187 1.953 23.801-2.707 29.85-4.66 6.049-15.218 5.8-25.254 6.443-10.036.642-27.403.542-34.962-2.59-7.56-3.131-9.44 1.155-10.395-16.199z"
         id="path52" />
      <path
         fill="#d03b1e"
         d="M800.109 242.329c-1.68-3.858-7.825-5.33-10.121 3.744-2.296 9.074-3.007 35.828-3.655 50.704-.648 14.875-1.958 31.369-.233 38.55 1.726 7.182 8.481 8.196 10.587 4.54 2.106-3.657 1.484-14.703 2.047-26.477.564-11.774 1.104-32.324 1.334-44.167.229-11.844 1.72-23.036.041-26.894zm31.196.808c-1.68-3.858-7.825-5.33-10.121 3.744-2.296 9.075-3.007 35.828-3.655 50.704-.648 14.876-1.959 31.37-.233 38.55 1.725 7.183 8.48 8.196 10.587 4.54 2.105-3.656 1.483-14.702 2.047-26.476.563-11.774 1.104-32.324 1.333-44.168.23-11.844 1.722-23.035.042-26.894z"
         id="path53" />
      <path
         fill="#dbc545"
         d="M368.436 284.982c-2.578-4.041-9.39-4.266-9.943 6.735-.553 11 4.233 41.98 6.627 59.266 2.394 17.287 4.42 36.594 7.735 44.452 3.315 7.857 10.679 7.407 12.152 2.692 1.473-4.715-1.473-17.287-3.314-30.981-1.84-13.694-5.523-37.49-7.733-51.184-2.21-13.694-2.946-26.94-5.524-30.98zm-26.514 6.357c-2.578-4.041-9.391-4.265-9.944 6.735-.552 11 4.234 41.98 6.628 59.267 2.393 17.286 4.42 36.594 7.735 44.451 3.314 7.857 10.678 7.407 12.152 2.692 1.473-4.714-1.473-17.286-3.314-30.98-1.841-13.695-5.523-37.49-7.733-51.184-2.21-13.694-2.946-26.94-5.524-30.981z"
         id="path54" />
      <path
         fill="#9831ff"
         d="M318.662 334.026c-4.603-17.709-13.075-72.645-13.26-91.763-.184-19.117 6.447-19.117 12.155-22.94 5.708-3.824 15.466 1.408 22.095 0 6.63-1.41 11.602-7.647 17.679-8.451 6.077-.805 14.73.401 18.781 3.62 4.051 3.22 2.763 1.41 5.525 15.697 2.762 14.287 8.655 53.125 11.049 70.029 2.394 16.904 6.996 24.15 3.313 31.395-3.683 7.244-14.915 9.254-25.411 12.072-10.496 2.817-28.909 6.441-37.563 4.832-8.654-1.61-9.759 3.218-14.363-14.491z"
         id="path55" />
      <path
         fill="#7024bc"
         d="M329.709 231.797c-2.578-3.623-9.39-3.824-9.944 6.037-.552 9.86 4.234 37.63 6.628 53.125 2.393 15.495 4.42 32.802 7.735 39.845 3.314 7.043 10.679 6.64 12.152 2.414 1.473-4.227-1.473-15.496-3.314-27.771s-5.523-33.605-7.733-45.88c-2.21-12.275-2.946-24.148-5.524-27.77zm33.205-5.862c-2.578-3.623-9.39-3.824-9.943 6.037-.553 9.86 4.233 37.63 6.627 53.125 2.394 15.495 4.42 32.802 7.735 39.845 3.315 7.043 10.679 6.64 12.152 2.414 1.473-4.227-1.473-15.496-3.314-27.771-1.84-12.275-5.523-33.605-7.732-45.88-2.21-12.275-2.947-24.148-5.525-27.77z"
         id="path56" />
      <path
         fill="#dbc545"
         d="M706.872 300.089c-3.167-4.273-12.898-5.099-15.121 5.866-2.224 10.965.6 42.405 1.78 59.923 1.178 17.518 1.569 37.028 5.294 45.187 3.725 8.16 14.333 8.358 17.057 3.767 2.724-4.59.14-17.438-.714-31.31-.855-13.874-3.032-38.022-4.415-51.928-1.383-13.905-.714-27.232-3.881-31.505z"
         id="path57" />
      <path
         fill="#ef4423"
         d="M668.067 343.353c-2.371-17.815-4.86-72.955-3.976-92.207.884-19.252 4.548-18.028 9.283-23.304 4.735-5.276 13.59-6.75 19.127-8.352 5.537-1.602 10.07-1.986 14.099-1.261 4.029.724 7.056 2.015 10.074 5.608 3.018 3.594 5.712 1.81 8.033 15.955 2.321 14.144 4.647 51.378 5.893 68.913 1.245 17.535 5.326 28.824 1.578 36.3-3.748 7.475-15.089 6.38-24.065 8.553-8.976 2.171-23.118 6.177-29.792 4.477-6.674-1.701-7.882 3.132-10.254-14.682z"
         id="path58" />
      <path
         fill="#f90"
         d="M663.923 242.8c-.838 3.235-1.166 18.49.382 22.365 1.55 3.874 3.684.737 8.911.882 5.227.144 15.714-1.035 22.453-.016 6.739 1.019 12.773 3.868 17.982 6.129 5.208 2.26 11.235 10.068 13.268 7.437 2.034-2.63.913-18.934-1.068-23.221-1.98-4.287-5.537-1.472-10.817-2.501-5.28-1.03-13.25-2.32-20.867-3.674-7.616-1.354-19.79-3.214-24.83-4.448-5.041-1.233-4.575-6.189-5.414-2.954zm65.057 59.36c-4.074-4.248-16.102-8.57-23.099-10.6-6.997-2.031-12.474-.914-18.882-1.584-6.408-.67-16-5.172-19.568-2.435-3.568 2.736-2.134 14.273-1.84 18.854.295 4.582.801 7.66 3.608 8.633 2.808.973 8.775-1.61 13.236-2.795 4.461-1.185 8.013-4.57 13.532-4.313 5.52.256 13.856 4.33 19.582 5.85 5.727 1.52 12.538 5.206 14.777 3.27 2.238-1.934 2.728-10.634-1.346-14.88zm4.465 37.257c-2.696-1.968-13.179-3.553-20.867-3.674-7.687-.122-17.47 3.13-25.259 2.946-7.788-.184-18.846-6.95-21.474-4.053-2.628 2.897 2.55 17.76 5.709 21.435 3.158 3.675 8.513.71 13.245.616 4.73-.094 9.36-.253 15.141-1.181 5.781-.928 14.742-3.06 19.544-4.386 4.803-1.326 6.945-1.619 9.271-3.57 2.327-1.95 7.386-6.165 4.69-8.133z"
         id="path59" />
      <path
         fill="#dbc545"
         d="M463.571 297.077c2.625-4.531 11.431-6.202 14.116 4.521 2.684 10.724 2.008 42.275 1.99 59.822-.017 17.546.802 37.006-2.097 45.456-2.899 8.45-12.541 9.574-15.297 5.24-2.756-4.332-1.179-17.35-1.236-31.238-.058-13.888.469-38.124.89-52.09.42-13.968-.99-27.18 1.634-31.71z"
         id="path60" />
      <path
         fill="#9fef16"
         d="M501.495 336.767c1.085-17.946.03-73.067-1.936-92.16-1.964-19.091-5.225-17.553-9.853-22.393-4.627-4.84-12.774-5.534-17.911-6.645-5.137-1.112-9.285-1.098-12.908-.025-3.623 1.073-6.301 2.623-8.832 6.465-2.53 3.842-5.09 2.3-6.35 16.587-1.26 14.287-1.134 51.564-1.21 69.133-.078 17.57-3.112 29.166.75 36.282 3.86 7.116 14.117 5.036 22.417 6.415 8.3 1.378 21.413 4.132 27.385 1.856 5.972-2.277 7.363 2.43 8.448-15.515z"
         id="path61" />
      <path
         fill="#fff31d"
         d="M499.21 236.282c.957 3.148 2.175 18.31.999 22.303-1.177 3.993-3.308 1.056-8.057 1.656-4.749.6-14.364.343-20.436 1.946-6.073 1.603-11.393 4.967-15.998 7.673-4.604 2.707-9.619 11.006-11.628 8.564-2.009-2.441-1.971-18.773-.427-23.215 1.545-4.441 4.951-1.948 9.695-3.434 4.744-1.486 11.92-3.468 18.77-5.481s17.82-4.93 22.332-6.598c4.514-1.669 3.791-6.562 4.75-3.414zm-55.636 64.788c3.452-4.584 14.139-9.939 20.385-12.572 6.245-2.633 11.298-2 17.09-3.226s14.25-6.547 17.663-4.134c3.412 2.414 2.802 14.026 2.81 18.614.008 4.587-.267 7.697-2.764 8.91-2.496 1.215-8.083-.837-12.214-1.627-4.132-.79-7.569-3.85-12.576-3.112-5.008.737-12.35 5.521-17.47 7.535-5.121 2.014-11.099 6.279-13.252 4.548-2.154-1.732-3.124-10.351.328-14.936zm-1.819 37.488c2.335-2.195 11.78-4.688 18.77-5.48 6.99-.793 16.089 1.591 23.167.727 7.078-.864 16.734-8.567 19.3-5.912 2.567 2.655-1.25 17.907-3.904 21.842-2.653 3.936-7.706 1.451-12.017 1.77-4.312.32-8.535.566-13.853.147-5.317-.419-13.601-1.76-18.052-2.66-4.45-.901-6.418-1.006-8.653-2.745-2.235-1.738-7.094-5.494-4.758-7.689z"
         id="path62" />
      <path
         fill="#dbc545"
         d="M224.715 300.535c2.625-4.532 11.431-6.203 14.115 4.52 2.685 10.724 2.009 42.276 1.991 59.822-.018 17.546.802 37.007-2.097 45.456-2.899 8.45-12.542 9.574-15.297 5.241-2.756-4.333-1.179-17.35-1.236-31.239-.058-13.888.469-38.124.89-52.09.42-13.967-.991-27.179 1.634-31.71z"
         id="path63" />
      <path
         fill="#13ceff"
         d="M262.639 340.224c1.085-17.945.029-73.067-1.936-92.159-1.965-19.092-5.225-17.553-9.853-22.393-4.627-4.84-12.775-5.534-17.911-6.646-5.137-1.112-9.285-1.098-12.908-.024-3.624 1.073-6.302 2.622-8.832 6.464-2.53 3.842-5.09 2.3-6.35 16.588-1.26 14.286-1.134 51.564-1.211 69.133-.077 17.569-3.111 29.165.75 36.282 3.861 7.116 14.118 5.036 22.418 6.414 8.3 1.379 21.413 4.133 27.385 1.856 5.972-2.276 7.362 2.43 8.448-15.515z"
         id="path64" />
      <path
         fill="#9831ff"
         d="M260.353 239.74c.958 3.148 2.176 18.31 1 22.302-1.177 3.994-3.309 1.057-8.057 1.657-4.75.6-14.364.343-20.437 1.946-6.072 1.603-11.393 4.967-15.997 7.673-4.604 2.706-9.619 11.006-11.628 8.564-2.01-2.442-1.971-18.773-.427-23.215 1.545-4.442 4.95-1.949 9.695-3.435 4.744-1.486 11.92-3.468 18.77-5.48 6.85-2.014 17.819-4.93 22.332-6.599 4.514-1.668 3.79-6.562 4.749-3.413zm-55.635 64.788c3.452-4.585 14.139-9.94 20.384-12.573 6.246-2.633 11.299-1.999 17.09-3.225 5.793-1.227 14.251-6.547 17.663-4.134 3.413 2.413 2.803 14.026 2.81 18.613.009 4.587-.266 7.697-2.763 8.911-2.496 1.214-8.083-.837-12.215-1.627-4.131-.79-7.568-3.85-12.576-3.113-5.007.737-12.35 5.521-17.47 7.535-5.12 2.014-11.098 6.28-13.252 4.548-2.154-1.731-3.123-10.35.329-14.935zm-1.82 37.488c2.336-2.195 11.781-4.689 18.77-5.481 6.99-.792 16.09 1.591 23.168.727 7.078-.864 16.734-8.567 19.3-5.912 2.566 2.655-1.25 17.908-3.904 21.843-2.654 3.935-7.706 1.45-12.018 1.77-4.311.32-8.534.565-13.852.147-5.317-.42-13.601-1.76-18.052-2.66-4.451-.902-6.418-1.006-8.653-2.745-2.236-1.739-7.094-5.494-4.759-7.69z"
         id="path65" />
      <path
         fill="#dbc545"
         d="M116.459 299.218c1.804-4.317 8.557-6.002 11.199 4.11 2.642 10.11 3.753 39.96 4.65 56.555.897 16.596 2.543 34.992.73 43.018-1.814 8.026-9.246 9.203-11.61 5.137-2.366-4.065-1.817-16.396-2.582-29.531-.765-13.135-1.614-36.064-2.012-49.278-.397-13.215-2.18-25.694-.375-30.01zm27.658.167c1.804-4.317 8.558-6.002 11.2 4.109 2.64 10.11 3.753 39.96 4.65 56.556.896 16.596 2.543 34.992.73 43.018-1.814 8.025-9.246 9.203-11.612 5.137-2.365-4.066-1.815-16.397-2.58-29.532-.766-13.134-1.615-36.063-2.012-49.278-.398-13.214-2.18-25.693-.376-30.01z"
         id="path66" />
      <path
         fill="#ef4423"
         d="M175.431 334.045c1.228-17.468-.76-70.397-4.208-88.216-3.45-17.82-10.063-16.383-16.484-18.702-6.421-2.32-15.162 4.661-22.042 4.788-6.88.127-13.027-4.596-19.242-4.028-6.215.568-14.619 3.566-18.048 7.438-3.43 3.872-2.488 1.908-2.529 15.795-.04 13.886 1.46 51.284 2.285 67.524.824 16.24-2.391 23.977 2.66 29.916 5.05 5.94 16.638 5.375 27.643 5.72 11.006.346 30.063-.273 38.39-3.646 8.328-3.373 10.347.878 11.575-16.59z"
         id="path67" />
      <path
         fill="#d03b1e"
         d="M144.986 241.362c1.884-3.928 8.642-5.591 11.067 3.46 2.425 9.05 2.927 35.914 3.483 50.844.557 14.93 1.823 31.465-.145 38.734-1.968 7.268-9.392 8.49-11.664 4.878-2.273-3.612-1.475-14.73-1.971-26.546-.496-11.815-.876-32.45-1.004-44.346-.128-11.895-1.65-23.097.234-27.024zm-34.238 1.744c1.883-3.928 8.641-5.59 11.066 3.46 2.425 9.05 2.927 35.915 3.483 50.844.557 14.93 1.823 31.465-.145 38.734-1.968 7.269-9.391 8.49-11.664 4.878-2.272-3.611-1.475-14.73-1.971-26.546-.496-11.815-.876-32.45-1.004-44.345-.128-11.895-1.649-23.098.235-27.025z"
         id="path68" />
      <path
         fill="#dbc545"
         d="M6.173 294.315c2.788-3.719 9.737-3.619 9.858 6.852.122 10.47-5.996 39.668-9.128 55.972C3.77 373.443.932 391.684-2.76 398.993c-3.691 7.308-11.174 6.542-12.486 1.997-1.31-4.544 2.194-16.347 4.619-29.265 2.424-12.919 7.13-35.345 9.93-48.246 2.8-12.902 4.082-25.446 6.87-29.164zm26.753 7.255c2.788-3.719 9.736-3.618 9.858 6.852.122 10.471-5.997 39.668-9.128 55.972-3.132 16.305-5.972 34.545-9.663 41.854-3.691 7.308-11.175 6.542-12.486 1.998-1.311-4.545 2.194-16.347 4.618-29.266 2.425-12.919 7.13-35.344 9.93-48.246 2.8-12.902 4.083-25.445 6.87-29.164z"
         id="path69" />
      <path
         fill="#fff31d"
         d="M54.905 343.172c5.4-16.603 16.234-68.379 17.188-86.523.955-18.145-5.799-18.45-11.46-22.343-5.661-3.893-15.81.627-22.506-1.015-6.696-1.643-11.511-7.794-17.669-8.837-6.158-1.044-15.02-.296-19.276 2.575s-2.87 1.21-6.257 14.65c-3.387 13.44-10.948 50.048-14.064 65.989-3.117 15.941-8.096 22.61-4.635 29.659 3.46 7.048 14.822 9.473 25.4 12.63 10.578 3.158 29.188 7.446 38.068 6.315 8.88-1.13 9.811 3.504 15.211-13.1z"
         id="path70" />
      <path
         fill="#e1d71a"
         d="M47.755 245.593c2.77-3.321 9.719-3.2 9.886 6.19.167 9.388-5.822 35.536-8.882 50.14-3.06 14.603-5.82 30.944-9.478 37.48-3.659 6.535-11.144 5.813-12.475 1.733-1.33-4.081 2.122-14.647 4.49-26.218 2.368-11.571 6.974-31.655 9.717-43.21 2.743-11.554 3.97-22.794 6.742-26.115zM14.167 238.5c2.77-3.32 9.718-3.198 9.886 6.19.167 9.388-5.822 35.537-8.882 50.14-3.06 14.604-5.82 30.945-9.478 37.48-3.659 6.536-11.144 5.814-12.475 1.733-1.33-4.08 2.122-14.646 4.49-26.217 2.368-11.571 6.974-31.656 9.717-43.21 2.743-11.554 3.97-22.795 6.742-26.116z"
         id="path71" />
      <path
         fill="#dbc545"
         d="M1067.74 303.172c-2.62-3.963-9.96-4.507-10.998 5.912-1.038 10.418 2.883 40.068 4.772 56.599 1.889 16.53 3.301 34.963 6.562 42.585 3.26 7.622 11.223 7.553 13.002 3.147 1.778-4.405-.896-16.486-2.332-29.579-1.437-13.093-4.455-35.867-6.29-48.977-1.834-13.111-2.098-25.725-4.717-29.687zm-28.86 4.747c-2.62-3.963-9.96-4.507-10.999 5.912-1.037 10.418 2.884 40.068 4.773 56.599 1.889 16.53 3.3 34.963 6.561 42.585s11.224 7.553 13.002 3.147c1.779-4.405-.895-16.486-2.332-29.579-1.436-13.093-4.454-35.867-6.289-48.977-1.834-13.111-2.098-25.725-4.717-29.687z"
         id="path72" />
      <path
         fill="#9fef16"
         d="M1012.073 347.321c-4.256-17.04-11.192-69.616-10.624-87.778.568-18.162 7.722-17.84 14.033-21.193 6.312-3.353 16.63 2.09 23.838 1.075 7.208-1.015 12.824-6.696 19.412-7.165 6.588-.468 15.876 1.098 20.117 4.353 4.241 3.254 2.924 1.471 5.33 15.172 2.407 13.702 7.207 50.867 9.111 67.034 1.904 16.168 6.58 23.272 2.316 29.972-4.265 6.7-16.464 8.062-27.9 10.227-11.436 2.165-31.447 4.71-40.72 2.761-9.271-1.95-10.657 2.582-14.913-14.458z"
         id="path73" />
      <path
         fill="#8fd613"
         d="M1028.092 250.786c-2.636-3.565-9.978-4.087-10.97 5.25-.991 9.335 3.058 35.937 5.019 50.767 1.96 14.83 3.453 31.362 6.747 38.211 3.293 6.85 11.254 6.824 13.013 2.883 1.758-3.942-.967-14.786-2.461-26.531-1.494-11.745-4.61-32.178-6.502-43.941-1.891-11.764-2.21-23.074-4.846-26.639zm36.059-3.951c-2.636-3.565-9.978-4.087-10.97 5.25-.992 9.335 3.058 35.937 5.019 50.767 1.96 14.83 3.453 31.362 6.746 38.211 3.294 6.85 11.255 6.824 13.014 2.883 1.758-3.942-.967-14.786-2.461-26.531-1.494-11.746-4.61-32.178-6.502-43.942-1.891-11.763-2.21-23.073-4.846-26.638z"
         id="path74" />
      <path
         fill="#dbc545"
         d="M108.653 541.084c1.664-4.661 8.776-6.787 12.21 3.782 3.436 10.568 6.436 42.108 8.4 59.63 1.966 17.52 4.841 36.91 3.391 45.498-1.45 8.587-9.316 10.21-12.089 6.026-2.773-4.183-2.935-17.264-4.55-31.128-1.614-13.865-3.912-38.092-5.14-52.06-1.227-13.968-3.887-27.087-2.222-31.748zm29.551-1.226c1.665-4.661 8.776-6.787 12.211 3.781 3.435 10.569 6.435 42.109 8.4 59.63 1.965 17.522 4.84 36.91 3.39 45.498-1.45 8.588-9.316 10.21-12.089 6.027-2.773-4.184-2.934-17.264-4.55-31.129-1.614-13.864-3.912-38.092-5.14-52.06-1.226-13.967-3.887-27.086-2.222-31.747z"
         id="path75" />
      <path
         fill="#13ceff"
         d="M173.754 574.958c.25-18.552-5.085-74.477-9.85-93.165-4.765-18.687-11.743-16.832-18.742-18.96-6.999-2.13-15.91 5.703-23.251 6.186-7.342.483-14.193-4.205-20.797-3.288-6.603.916-15.397 4.516-18.825 8.788-3.428 4.273-2.541 2.147-1.742 16.848.8 14.701 4.673 54.21 6.539 71.36 1.866 17.148-1.098 25.5 4.657 31.532 5.755 6.03 18.097 4.845 29.873 4.653 11.776-.193 32.093-1.815 40.783-5.807 8.69-3.992 11.104.405 11.355-18.147z"
         id="path76" />
      <path
         fill="#10a9d2"
         d="M135.61 478.395c1.774-4.253 8.89-6.356 12.03 3.101 3.14 9.458 5.307 37.868 6.807 53.644 1.5 15.775 3.857 33.214 2.196 41.007-1.66 7.794-9.515 9.463-12.162 5.755-2.646-3.707-2.47-15.518-3.716-27.999-1.247-12.481-2.905-34.305-3.764-46.89-.86-12.584-3.164-24.365-1.39-28.618zm-36.464 3.583c1.774-4.253 8.891-6.357 12.03 3.1 3.14 9.458 5.307 37.869 6.807 53.644 1.5 15.775 3.857 33.214 2.196 41.008-1.66 7.794-9.515 9.462-12.162 5.755-2.646-3.708-2.47-15.518-3.716-28-1.247-12.48-2.905-34.305-3.764-46.89-.86-12.584-3.164-24.365-1.39-28.617z"
         id="path77" />
      <path
         fill="#dbc545"
         d="M494.718 525.395c-2.733-3.719-9.543-3.618-9.662 6.852-.12 10.471 5.877 39.668 8.947 55.972 3.07 16.305 5.852 34.545 9.47 41.854 3.618 7.308 10.952 6.542 12.237 1.998 1.286-4.545-2.15-16.347-4.526-29.266-2.376-12.918-6.988-35.344-9.732-48.246-2.745-12.902-4.001-25.445-6.734-29.164zm-26.22 7.255c-2.733-3.718-9.543-3.618-9.662 6.853-.12 10.47 5.877 39.668 8.946 55.972 3.07 16.304 5.853 34.545 9.47 41.853 3.619 7.309 10.953 6.543 12.238 1.998 1.285-4.544-2.15-16.347-4.526-29.266-2.377-12.918-6.988-35.344-9.733-48.246-2.744-12.901-4-25.445-6.733-29.164z"
         id="path78" />
      <path
         fill="#fff31d"
         d="M446.955 574.253c-5.292-16.604-15.91-68.38-16.846-86.524-.935-18.144 5.684-18.45 11.232-22.343 5.549-3.893 15.496.627 22.06-1.015 6.562-1.642 11.281-7.793 17.316-8.837 6.035-1.043 14.722-.295 18.893 2.576 4.171 2.87 2.813 1.21 6.133 14.65 3.32 13.44 10.73 50.047 13.784 65.988 3.054 15.942 7.934 22.61 4.542 29.659-3.392 7.048-14.527 9.473-24.894 12.63-10.368 3.158-28.608 7.446-37.311 6.315-8.703-1.13-9.616 3.505-14.909-13.1z"
         id="path79" />
      <path
         fill="#e1d71a"
         d="M453.964 476.673c-2.716-3.321-9.526-3.199-9.69 6.19-.164 9.388 5.706 35.537 8.705 50.14 3 14.604 5.704 30.945 9.29 37.48 3.586 6.535 10.922 5.814 12.226 1.733 1.304-4.08-2.08-14.646-4.4-26.217-2.32-11.572-6.835-31.656-9.524-43.21-2.688-11.555-3.891-22.795-6.607-26.116zm32.92-7.093c-2.717-3.32-9.526-3.198-9.69 6.19-.164 9.389 5.706 35.538 8.705 50.14 3 14.604 5.703 30.945 9.29 37.48 3.585 6.536 10.921 5.814 12.226 1.734 1.304-4.081-2.08-14.647-4.4-26.218-2.32-11.571-6.836-31.655-9.524-43.21-2.689-11.554-3.891-22.794-6.607-26.115z"
         id="path80" />
      <path
         fill="#dbc545"
         d="M344.947 524.296c1.571-4.248 7.59-5.742 10.044 4.393 2.454 10.136 3.725 39.878 4.68 56.42.955 16.544 2.597 34.9 1.051 42.84-1.546 7.939-8.175 8.91-10.326 4.798-2.151-4.11-1.775-16.37-2.58-29.464-.806-13.095-1.777-35.94-2.255-49.105s-2.186-25.634-.614-29.882zm24.713.915c1.572-4.248 7.591-5.742 10.045 4.394 2.454 10.135 3.725 39.877 4.68 56.42.955 16.543 2.597 34.899 1.051 42.839-1.546 7.94-8.175 8.91-10.326 4.799s-1.775-16.37-2.58-29.465c-.806-13.095-1.777-35.94-2.255-49.105s-2.186-25.634-.614-29.882z"
         id="path81" />
      <path
         fill="#ef4423"
         d="M397.961 560.559c.935-17.354-1.332-70.091-4.579-87.922-3.247-17.83-9.143-16.58-14.902-19.062-5.758-2.483-13.503 4.229-19.65 4.169-6.146-.06-11.681-4.929-17.229-4.531-5.548.397-13.028 3.153-16.057 6.915-3.028 3.761-2.205 1.832-2.112 15.653.092 13.821 1.78 51.086 2.667 67.274.887 16.187-1.913 23.8 2.654 29.85 4.568 6.048 14.916 5.8 24.753 6.442 9.837.643 26.858.542 34.268-2.589 7.409-3.131 9.252 1.154 10.187-16.2z"
         id="path82" />
      <path
         fill="#d03b1e"
         d="M369.899 467.48c1.646-3.859 7.67-5.331 9.92 3.744 2.25 9.074 2.948 35.827 3.584 50.703.636 14.876 1.92 31.37.23 38.551-1.692 7.182-8.313 8.195-10.377 4.54-2.064-3.657-1.455-14.703-2.007-26.477-.553-11.774-1.084-32.324-1.309-44.168-.225-11.843-1.688-23.035-.041-26.893zm-30.576.808c1.646-3.858 7.67-5.33 9.92 3.744 2.25 9.075 2.949 35.828 3.584 50.704.636 14.875 1.92 31.369.23 38.55-1.691 7.182-8.312 8.196-10.376 4.54-2.064-3.656-1.455-14.703-2.008-26.477-.553-11.774-1.083-32.324-1.308-44.167-.225-11.844-1.688-23.036-.042-26.894z"
         id="path83" />
      <path
         fill="#dbc545"
         d="M693.138 519.518c2.527-4.04 9.204-4.265 9.746 6.735.541 11-4.15 41.98-6.496 59.267-2.346 17.286-4.333 36.594-7.581 44.451-3.249 7.857-10.466 7.407-11.91 2.692-1.444-4.714 1.443-17.286 3.248-30.98 1.804-13.695 5.413-37.49 7.578-51.184 2.166-13.694 2.888-26.94 5.415-30.981zm25.987 6.357c2.526-4.04 9.204-4.265 9.745 6.736.542 11-4.15 41.98-6.495 59.266-2.346 17.286-4.333 36.594-7.581 44.452-3.249 7.857-10.467 7.407-11.91 2.692-1.444-4.715 1.443-17.287 3.247-30.981 1.805-13.694 5.414-37.49 7.58-51.184 2.165-13.694 2.887-26.94 5.414-30.98z"
         id="path84" />
      <path
         fill="#9831ff"
         d="M741.921 568.562c4.512-17.708 12.816-72.645 12.996-91.762.18-19.117-6.318-19.118-11.912-22.941-5.595-3.824-15.159 1.408-21.656 0-6.497-1.409-11.371-7.646-17.327-8.451-5.956-.805-14.437.402-18.408 3.621-3.97 3.22-2.707 1.409-5.414 15.696-2.708 14.288-8.483 53.125-10.83 70.03-2.346 16.903-6.857 24.15-3.247 31.394 3.61 7.245 14.619 9.255 24.906 12.072 10.287 2.817 28.333 6.442 36.815 4.832 8.483-1.61 9.565 3.218 14.077-14.49z"
         id="path85" />
      <path
         fill="#7024bc"
         d="M731.095 466.333c2.526-3.622 9.203-3.823 9.745 6.037.542 9.86-4.15 37.63-6.495 53.125-2.346 15.496-4.333 32.803-7.582 39.846-3.248 7.043-10.466 6.64-11.91 2.413-1.443-4.226 1.444-15.496 3.248-27.77 1.805-12.276 5.413-33.605 7.579-45.88 2.166-12.275 2.888-24.149 5.414-27.771zm-32.545-5.862c2.527-3.622 9.204-3.823 9.746 6.037.541 9.86-4.15 37.63-6.496 53.125-2.346 15.496-4.333 32.803-7.581 39.846-3.249 7.043-10.467 6.64-11.91 2.413-1.444-4.226 1.443-15.495 3.247-27.77 1.805-12.276 5.414-33.605 7.58-45.88 2.165-12.275 2.887-24.149 5.414-27.771z"
         id="path86" />
      <path
         fill="#dbc545"
         d="M580.566 541.46c3.104-4.273 12.64-5.098 14.82 5.866 2.18 10.965-.588 42.405-1.744 59.923-1.155 17.518-1.538 37.028-5.19 45.187-3.65 8.16-14.047 8.358-16.717 3.767-2.67-4.59-.137-17.437.7-31.31.838-13.873 2.972-38.022 4.327-51.928 1.356-13.905.7-27.232 3.804-31.505z"
         id="path87" />
      <path
         fill="#ef4423"
         d="M618.598 584.724c2.324-17.815 4.764-72.955 3.897-92.207-.867-19.252-4.457-18.028-9.098-23.304-4.64-5.276-13.319-6.75-18.746-8.352-5.427-1.602-9.87-1.986-13.818-1.261-3.949.724-6.916 2.015-9.874 5.609-2.958 3.593-5.598 1.809-7.873 15.954-2.275 14.144-4.555 51.378-5.775 68.913-1.22 17.536-5.22 28.824-1.547 36.3 3.673 7.475 14.788 6.381 23.585 8.553 8.798 2.171 22.658 6.178 29.2 4.477 6.54-1.701 7.724 3.132 10.049-14.682z"
         id="path88" />
      <path
         fill="#f90"
         d="M622.66 484.17c.821 3.236 1.143 18.491-.375 22.366-1.518 3.874-3.61.737-8.733.882-5.123.144-15.4-1.035-22.006-.016-6.605 1.02-12.52 3.868-17.624 6.129-5.105 2.261-11.011 10.068-13.004 7.437-1.993-2.63-.895-18.934 1.047-23.221 1.941-4.287 5.426-1.472 10.602-2.5 5.175-1.03 12.986-2.321 20.45-3.675 7.465-1.353 19.397-3.214 24.337-4.448 4.94-1.233 4.484-6.189 5.306-2.953zm-63.762 59.36c3.993-4.247 15.781-8.57 22.639-10.6 6.858-2.03 12.226-.913 18.506-1.583 6.281-.67 15.682-5.172 19.178-2.435 3.497 2.737 2.092 14.273 1.803 18.854-.288 4.582-.784 7.66-3.536 8.633-2.75.973-8.6-1.61-12.972-2.795-4.372-1.185-7.853-4.569-13.262-4.313-5.41.256-13.58 4.33-19.193 5.85-5.612 1.52-12.288 5.206-14.482 3.27-2.194-1.934-2.674-10.634 1.32-14.88zm-4.376 37.258c2.643-1.968 12.917-3.553 20.451-3.674 7.535-.121 17.122 3.13 24.756 2.946 7.634-.184 18.472-6.95 21.047-4.053 2.575 2.897-2.499 17.76-5.595 21.435-3.096 3.676-8.344.71-12.981.616-4.637-.094-9.174-.253-14.84-1.181s-14.448-3.06-19.155-4.386c-4.707-1.326-6.806-1.619-9.087-3.57-2.28-1.95-7.238-6.165-4.596-8.133z"
         id="path89" />
      <path
         fill="#dbc545"
         d="M252.696 542.332c-2.573-4.532-11.204-6.203-13.835 4.52-2.63 10.724-1.968 42.276-1.95 59.822.017 17.546-.787 37.007 2.055 45.456 2.84 8.45 12.292 9.574 14.993 5.241 2.7-4.333 1.155-17.35 1.211-31.239.057-13.888-.46-38.124-.872-52.09-.412-13.967.97-27.179-1.602-31.71z"
         id="path90" />
      <path
         fill="#9fef16"
         d="M215.527 582.021c-1.064-17.946-.029-73.067 1.897-92.16 1.926-19.091 5.122-17.553 9.657-22.392 4.535-4.84 12.52-5.534 17.555-6.646 5.034-1.112 9.1-1.098 12.651-.025 3.551 1.074 6.176 2.623 8.656 6.465 2.48 3.842 4.988 2.3 6.223 16.588 1.236 14.286 1.112 51.564 1.188 69.133.075 17.569 3.049 29.165-.736 36.281-3.784 7.116-13.836 5.037-21.971 6.415-8.136 1.379-20.987 4.132-26.84 1.856-5.854-2.277-7.216 2.43-8.28-15.515z"
         id="path91" />
      <path
         fill="#fff31d"
         d="M217.767 481.536c-.939 3.148-2.132 18.31-.98 22.303 1.153 3.993 3.243 1.056 7.897 1.657 4.654.6 14.078.342 20.03 1.946 5.951 1.603 11.166 4.966 15.679 7.673 4.512 2.706 9.427 11.006 11.396 8.564 1.97-2.442 1.933-18.774.419-23.215-1.514-4.442-4.852-1.95-9.502-3.435-4.65-1.486-11.683-3.468-18.397-5.481-6.714-2.013-17.464-4.93-21.888-6.598-4.423-1.668-3.715-6.562-4.654-3.414zm54.528 64.788c-3.383-4.584-13.857-9.939-19.979-12.572-6.121-2.633-11.073-1.999-16.75-3.225-5.677-1.227-13.967-6.547-17.311-4.134-3.345 2.413-2.747 14.026-2.755 18.613-.008 4.587.262 7.697 2.709 8.91 2.447 1.215 7.922-.837 11.972-1.626 4.05-.79 7.417-3.85 12.325-3.113 4.909.737 12.105 5.521 17.123 7.535 5.019 2.014 10.877 6.28 12.988 4.548 2.111-1.731 3.062-10.351-.322-14.936zm1.784 37.489c-2.29-2.196-11.547-4.69-18.397-5.481-6.85-.793-15.77 1.591-22.706.727-6.937-.864-16.402-8.567-18.917-5.912-2.515 2.655 1.226 17.907 3.827 21.843 2.6 3.935 7.552 1.45 11.778 1.77 4.226.32 8.365.565 13.577.146 5.211-.419 13.33-1.76 17.693-2.66 4.362-.9 6.29-1.005 8.48-2.744 2.192-1.74 6.953-5.494 4.665-7.69z"
         id="path92" />
      <path
         fill="#dbc545"
         d="M834 535.071c-2.573-4.531-11.204-6.203-13.835 4.521-2.631 10.724-1.969 42.275-1.951 59.822.017 17.546-.786 37.006 2.055 45.456 2.841 8.45 12.292 9.574 14.993 5.24 2.7-4.332 1.155-17.35 1.212-31.238.056-13.889-.46-38.124-.873-52.09-.412-13.968.971-27.18-1.602-31.71z"
         id="path93" />
      <path
         fill="#13ceff"
         d="M796.83 574.76c-1.064-17.945-.028-73.066 1.897-92.158 1.926-19.093 5.122-17.554 9.657-22.394 4.536-4.84 12.52-5.534 17.555-6.645 5.035-1.112 9.1-1.098 12.652-.025 3.55 1.073 6.175 2.623 8.655 6.465 2.48 3.842 4.989 2.3 6.224 16.587 1.235 14.287 1.112 51.564 1.187 69.133.075 17.57 3.05 29.166-.735 36.282-3.785 7.116-13.837 5.036-21.972 6.415-8.135 1.378-20.987 4.132-26.84 1.855-5.853-2.276-7.216 2.431-8.28-15.514z"
         id="path94" />
      <path
         fill="#9831ff"
         d="M799.07 474.276c-.938 3.148-2.132 18.31-.98 22.303 1.154 3.993 3.243 1.056 7.897 1.656 4.655.6 14.079.343 20.03 1.946 5.952 1.603 11.166 4.967 15.679 7.673 4.513 2.706 9.428 11.006 11.397 8.564 1.969-2.441 1.932-18.773.418-23.215-1.514-4.441-4.852-1.949-9.502-3.434-4.65-1.486-11.683-3.468-18.397-5.481-6.714-2.014-17.464-4.93-21.887-6.598-4.424-1.669-3.715-6.562-4.654-3.414zm54.529 64.788c-3.384-4.585-13.858-9.94-19.98-12.572-6.12-2.633-11.073-2-16.75-3.226s-13.967-6.547-17.31-4.134c-3.345 2.414-2.748 14.026-2.755 18.613-.008 4.588.262 7.698 2.708 8.911 2.447 1.214 7.922-.837 11.972-1.627s7.418-3.85 12.326-3.112c4.908.737 12.104 5.52 17.123 7.535 5.018 2.013 10.877 6.279 12.988 4.547 2.11-1.73 3.061-10.35-.322-14.935zm1.783 37.488c-2.289-2.195-11.546-4.689-18.397-5.48-6.85-.793-15.769 1.59-22.706.727-6.937-.864-16.402-8.567-18.917-5.912-2.515 2.655 1.226 17.907 3.827 21.842 2.6 3.936 7.553 1.45 11.779 1.77 4.225.32 8.365.566 13.576.147 5.212-.419 13.331-1.76 17.693-2.66 4.363-.901 6.29-1.006 8.481-2.745s6.953-5.494 4.664-7.689z"
         id="path95" />
      <path
         fill="#dbc545"
         d="M940.102 533.755c-1.768-4.317-8.388-6.002-10.977 4.109-2.589 10.11-3.678 39.96-4.557 56.556-.879 16.595-2.493 34.992-.716 43.017 1.778 8.026 9.062 9.203 11.38 5.138 2.318-4.066 1.78-16.397 2.53-29.532.75-13.135 1.582-36.063 1.972-49.278.39-13.215 2.136-25.693.368-30.01zm-27.108.166c-1.768-4.317-8.387-6.001-10.976 4.11-2.59 10.11-3.68 39.96-4.558 56.555-.879 16.596-2.493 34.992-.715 43.018 1.777 8.026 9.061 9.203 11.38 5.137 2.318-4.065 1.779-16.396 2.53-29.531.75-13.135 1.58-36.063 1.97-49.278.39-13.215 2.137-25.694.369-30.01z"
         id="path96" />
      <path
         fill="#f90"
         d="M882.303 568.581c-1.204-17.468.744-70.396 4.124-88.216 3.38-17.82 9.863-16.383 16.157-18.702 6.293-2.319 14.86 4.662 21.603 4.788 6.743.127 12.767-4.596 18.859-4.028 6.091.569 14.327 3.566 17.689 7.438 3.36 3.873 2.438 1.909 2.478 15.795.04 13.887-1.431 51.284-2.239 67.524-.807 16.24 2.343 23.977-2.607 29.917-4.95 5.939-16.307 5.374-27.094 5.72-10.786.345-29.464-.274-37.626-3.647-8.162-3.372-10.141.878-11.344-16.589z"
         id="path97" />
      <path
         fill="#d88100"
         d="M912.142 475.898c-1.846-3.927-8.47-5.59-10.847 3.46-2.376 9.05-2.868 35.915-3.414 50.845-.545 14.93-1.786 31.465.143 38.733 1.929 7.269 9.204 8.49 11.432 4.878 2.227-3.611 1.446-14.73 1.932-26.546.486-11.815.858-32.45.983-44.345.126-11.895 1.617-23.097-.23-27.025zm33.558 1.744c-1.847-3.927-8.47-5.59-10.847 3.46-2.377 9.051-2.869 35.915-3.414 50.845-.545 14.93-1.787 31.465.142 38.734 1.93 7.268 9.205 8.489 11.432 4.877 2.228-3.61 1.446-14.73 1.932-26.545.486-11.816.858-32.45.984-44.346.126-11.895 1.616-23.097-.23-27.025z"
         id="path98" />
      <path
         fill="#dbc545"
         d="M1048.193 528.851c-2.732-3.719-9.543-3.618-9.662 6.853-.12 10.47 5.877 39.667 8.947 55.972 3.07 16.304 5.852 34.544 9.47 41.853 3.618 7.309 10.953 6.543 12.238 1.998 1.285-4.545-2.15-16.347-4.527-29.266-2.376-12.918-6.988-35.344-9.732-48.246-2.744-12.902-4.001-25.445-6.734-29.164zm-26.22 7.255c-2.733-3.718-9.543-3.618-9.662 6.853-.12 10.47 5.877 39.668 8.946 55.972 3.07 16.304 5.853 34.545 9.47 41.853 3.619 7.309 10.953 6.543 12.238 1.998 1.286-4.544-2.15-16.347-4.526-29.265-2.377-12.92-6.988-35.345-9.733-48.247-2.744-12.901-4-25.445-6.733-29.164z"
         id="path99" />
      <path
         fill="#13ceff"
         d="M1000.43 577.709c-5.292-16.604-15.91-68.38-16.845-86.524-.936-18.144 5.683-18.45 11.232-22.343 5.548-3.893 15.496.627 22.058-1.015 6.563-1.642 11.283-7.793 17.318-8.837 6.035-1.043 14.721-.295 18.892 2.576 4.171 2.87 2.813 1.21 6.133 14.65 3.32 13.44 10.73 50.047 13.784 65.988 3.055 15.942 7.935 22.61 4.543 29.659-3.392 7.048-14.527 9.473-24.895 12.63-10.367 3.158-28.608 7.446-37.311 6.315-8.703-1.13-9.616 3.505-14.909-13.1z"
         id="path100" />
      <path
         fill="#10a9d2"
         d="M1007.439 480.129c-2.716-3.321-9.526-3.199-9.69 6.19-.164 9.388 5.706 35.537 8.706 50.14 2.999 14.604 5.703 30.945 9.289 37.48 3.586 6.535 10.922 5.814 12.226 1.733 1.305-4.08-2.08-14.646-4.4-26.217-2.32-11.572-6.835-31.656-9.524-43.21-2.688-11.555-3.89-22.795-6.607-26.116zm32.92-7.092c-2.716-3.321-9.526-3.199-9.69 6.19-.164 9.388 5.706 35.537 8.705 50.14 3 14.603 5.704 30.944 9.29 37.48 3.586 6.535 10.922 5.813 12.226 1.733 1.304-4.081-2.08-14.646-4.4-26.218-2.32-11.57-6.835-31.655-9.524-43.21-2.688-11.554-3.891-22.794-6.607-26.115z"
         id="path101" />
      <path
         fill="#dbc545"
         d="M7.748 537.708c2.567-3.962 9.762-4.506 10.779 5.912 1.017 10.419-2.826 40.068-4.677 56.6-1.852 16.53-3.236 34.962-6.432 42.584-3.195 7.622-11 7.553-12.743 3.148-1.743-4.405.877-16.487 2.286-29.58 1.408-13.092 4.366-35.866 6.164-48.977 1.797-13.11 2.056-25.724 4.623-29.687zm28.286 4.747c2.567-3.962 9.762-4.506 10.779 5.912 1.017 10.419-2.826 40.069-4.677 56.6-1.852 16.53-3.236 34.962-6.432 42.584-3.195 7.622-11 7.553-12.743 3.148-1.743-4.405.877-16.487 2.286-29.58 1.408-13.092 4.366-35.866 6.164-48.977 1.797-13.11 2.056-25.724 4.623-29.687z"
         id="path102" />
      <path
         fill="#f90"
         d="M62.307 581.858c4.171-17.04 10.969-69.617 10.412-87.779-.557-18.161-7.568-17.84-13.754-21.192-6.186-3.353-16.298 2.09-23.363 1.074-7.065-1.015-12.569-6.695-19.026-7.164-6.457-.469-15.56 1.098-19.717 4.352-4.157 3.254-2.865 1.472-5.224 15.173-2.36 13.701-7.063 50.866-8.93 67.034-1.866 16.167-6.448 23.272-2.269 29.972 4.18 6.7 16.136 8.062 27.345 10.227 11.209 2.164 30.821 4.71 39.909 2.76 9.087-1.949 10.445 2.582 14.617-14.457z"
         id="path103" />
      <path
         fill="#d88100"
         d="M46.606 485.323c2.584-3.565 9.78-4.087 10.752 5.249.972 9.336-2.997 35.938-4.919 50.767-1.922 14.83-3.384 31.363-6.612 38.212-3.228 6.849-11.03 6.824-12.754 2.882-1.724-3.941.947-14.785 2.411-26.53 1.464-11.746 4.52-32.179 6.373-43.942 1.853-11.763 2.166-23.073 4.75-26.638zm-35.341-3.951c2.583-3.565 9.78-4.087 10.751 5.249.973 9.336-2.996 35.937-4.918 50.767-1.922 14.83-3.385 31.363-6.613 38.212-3.227 6.849-11.03 6.824-12.754 2.882-1.724-3.941.948-14.785 2.412-26.53 1.464-11.746 4.519-32.179 6.372-43.942 1.854-11.763 2.166-23.074 4.75-26.638z"
         id="path104" />
      <path
         fill="#dbc545"
         d="M940.744 774.766c-1.746-4.661-9.207-6.787-12.81 3.781-3.604 10.569-6.751 42.109-8.813 59.63-2.061 17.522-5.078 36.91-3.557 45.498 1.52 8.588 9.774 10.21 12.683 6.027 2.91-4.184 3.079-17.264 4.773-31.129 1.694-13.864 4.105-38.092 5.392-52.06 1.287-13.967 4.079-27.086 2.332-31.747zm-31.002-1.226c-1.746-4.661-9.207-6.787-12.81 3.781-3.605 10.569-6.751 42.109-8.813 59.63-2.062 17.521-5.078 36.91-3.557 45.498 1.52 8.588 9.773 10.21 12.683 6.027 2.909-4.184 3.078-17.264 4.773-31.129 1.694-13.865 4.104-38.092 5.392-52.06 1.287-13.968 4.078-27.086 2.332-31.747z"
         id="path105" />
      <path
         fill="#13ceff"
         d="M872.446 808.64c-.263-18.552 5.335-74.478 10.334-93.165 5-18.688 12.32-16.832 19.662-18.96 7.342-2.13 16.691 5.702 24.393 6.185 7.702.484 14.89-4.204 21.817-3.288 6.928.917 16.154 4.516 19.75 8.79 3.596 4.272 2.666 2.145 1.828 16.847-.84 14.7-4.903 54.21-6.86 71.36-1.958 17.148 1.152 25.5-4.886 31.531-6.037 6.031-18.985 4.846-31.34 4.653-12.354-.192-33.668-1.814-42.785-5.806-9.116-3.993-11.65.405-11.913-18.147z"
         id="path106" />
      <path
         fill="#10a9d2"
         d="M912.463 712.077c-1.86-4.253-9.327-6.356-12.62 3.101-3.294 9.458-5.568 37.868-7.142 53.643-1.574 15.776-4.046 33.214-2.304 41.008 1.743 7.794 9.983 9.462 12.76 5.755 2.776-3.707 2.59-15.518 3.898-28 1.308-12.48 3.048-34.304 3.95-46.889.9-12.585 3.318-24.365 1.458-28.618zm38.254 3.583c-1.86-4.253-9.327-6.357-12.62 3.1-3.294 9.458-5.567 37.869-7.142 53.644-1.574 15.775-4.046 33.214-2.303 41.008 1.742 7.794 9.982 9.462 12.758 5.755 2.777-3.708 2.592-15.518 3.9-28 1.308-12.481 3.047-34.305 3.949-46.89.9-12.584 3.319-24.365 1.458-28.618z"
         id="path107" />
      <path
         fill="#dbc545"
         d="M535.723 759.077c2.867-3.719 10.011-3.618 10.137 6.852.125 10.471-6.166 39.668-9.387 55.972-3.22 16.305-6.14 34.545-9.935 41.854-3.795 7.308-11.49 6.542-12.838 1.998-1.348-4.545 2.255-16.347 4.748-29.266 2.494-12.919 7.332-35.344 10.21-48.246 2.88-12.902 4.198-25.446 7.065-29.164zm27.507 7.255c2.867-3.719 10.012-3.618 10.137 6.853.125 10.47-6.166 39.667-9.386 55.972-3.22 16.304-6.14 34.544-9.935 41.853-3.796 7.309-11.49 6.543-12.838 1.998-1.349-4.545 2.255-16.347 4.748-29.266 2.493-12.918 7.331-35.344 10.21-48.246 2.88-12.902 4.198-25.445 7.065-29.164z"
         id="path108" />
      <path
         fill="#fff31d"
         d="M585.83 807.935c5.553-16.604 16.692-68.38 17.674-86.524.981-18.145-5.963-18.45-11.784-22.343-5.82-3.893-16.257.627-23.141-1.015-6.885-1.642-11.837-7.794-18.168-8.837-6.331-1.044-15.445-.296-19.82 2.575-4.376 2.871-2.952 1.21-6.434 14.65-3.482 13.44-11.256 50.048-14.461 65.99-3.204 15.94-8.324 22.61-4.766 29.658 3.559 7.048 15.24 9.473 26.117 12.63 10.877 3.158 30.013 7.446 39.143 6.315 9.13-1.13 10.089 3.505 15.64-13.1z"
         id="path109" />
      <path
         fill="#e1d71a"
         d="M578.478 710.355c2.85-3.321 9.993-3.199 10.166 6.19.172 9.388-5.987 35.537-9.133 50.14-3.146 14.603-5.983 30.944-9.745 37.48-3.762 6.535-11.459 5.813-12.827 1.733-1.369-4.081 2.181-14.646 4.616-26.218 2.435-11.57 7.171-31.655 9.992-43.21 2.82-11.554 4.082-22.794 6.931-26.115zm-34.536-7.093c2.85-3.32 9.993-3.198 10.165 6.19.173 9.388-5.986 35.537-9.132 50.14-3.146 14.604-5.983 30.945-9.745 37.48-3.762 6.536-11.459 5.814-12.827 1.733-1.369-4.08 2.181-14.646 4.616-26.217 2.435-11.571 7.17-31.656 9.991-43.21 2.821-11.554 4.083-22.795 6.932-26.116z"
         id="path110" />
      <path
         fill="#dbc545"
         d="M692.848 757.978c-1.649-4.249-7.963-5.743-10.538 4.393-2.574 10.136-3.907 39.877-4.91 56.42-1.001 16.544-2.724 34.9-1.102 42.84 1.622 7.939 8.577 8.91 10.833 4.798 2.257-4.11 1.862-16.37 2.707-29.465.846-13.095 1.864-35.94 2.366-49.105.501-13.164 2.293-25.633.644-29.881zm-25.928.915c-1.648-4.248-7.962-5.742-10.537 4.393-2.574 10.136-3.907 39.878-4.91 56.42-1.002 16.544-2.724 34.9-1.102 42.84 1.621 7.939 8.576 8.91 10.833 4.798 2.257-4.11 1.862-16.37 2.707-29.464.845-13.095 1.864-35.94 2.365-49.105.502-13.165 2.294-25.634.645-29.882z"
         id="path111" />
      <path
         fill="#ef4423"
         d="M637.23 794.24c-.98-17.353 1.398-70.09 4.804-87.921 3.407-17.831 9.593-16.58 15.634-19.063 6.041-2.482 14.166 4.23 20.614 4.17 6.449-.06 12.256-4.929 18.076-4.531 5.82.397 13.668 3.153 16.845 6.914 3.177 3.762 2.314 1.833 2.217 15.654-.097 13.821-1.869 51.086-2.8 67.273-.93 16.188 2.009 23.802-2.784 29.85-4.792 6.05-15.648 5.801-25.967 6.443-10.32.642-28.178.542-35.95-2.59-7.774-3.13-9.708 1.155-10.688-16.198z"
         id="path112" />
      <path
         fill="#d03b1e"
         d="M666.67 701.161c-1.727-3.858-8.045-5.33-10.406 3.744-2.362 9.075-3.094 35.828-3.76 50.704-.667 14.876-2.015 31.37-.241 38.55 1.774 7.182 8.72 8.196 10.885 4.54 2.166-3.656 1.527-14.702 2.106-26.476.58-11.774 1.137-32.324 1.373-44.168.236-11.844 1.77-23.035.044-26.894zm32.078.809c-1.727-3.858-8.046-5.33-10.407 3.744-2.362 9.074-3.094 35.828-3.76 50.703-.667 14.876-2.015 31.37-.241 38.551 1.774 7.182 8.72 8.196 10.885 4.54 2.166-3.657 1.527-14.703 2.107-26.477.58-11.774 1.136-32.324 1.372-44.168.236-11.843 1.771-23.035.044-26.893z"
         id="path113" />
      <path
         fill="#dbc545"
         d="M327.56 753.2c-2.65-4.041-9.655-4.265-10.223 6.735-.569 11 4.353 41.98 6.814 59.266 2.461 17.287 4.545 36.595 7.953 44.452 3.409 7.857 10.98 7.407 12.495 2.692 1.515-4.715-1.514-17.287-3.407-30.98-1.893-13.695-5.68-37.49-7.95-51.184-2.273-13.694-3.03-26.94-5.681-30.981zm-27.262 6.357c-2.65-4.04-9.656-4.265-10.224 6.735-.568 11 4.353 41.98 6.814 59.267 2.461 17.286 4.546 36.594 7.954 44.451 3.408 7.858 10.98 7.407 12.495 2.693 1.514-4.715-1.515-17.287-3.408-30.981-1.893-13.694-5.679-37.49-7.95-51.184-2.273-13.694-3.03-26.94-5.681-30.98z"
         id="path114" />
      <path
         fill="#9831ff"
         d="M276.382 802.244c-4.734-17.709-13.444-72.645-13.634-91.762-.19-19.118 6.628-19.118 12.497-22.942 5.87-3.823 15.903 1.409 22.72 0 6.815-1.408 11.929-7.645 18.177-8.45 6.248-.805 15.146.402 19.312 3.621 4.165 3.22 2.84 1.409 5.68 15.696 2.84 14.288 8.9 53.125 11.361 70.03 2.461 16.903 7.194 24.15 3.407 31.394s-15.337 9.254-26.129 12.072c-10.792 2.817-29.724 6.442-38.623 4.832-8.899-1.61-10.034 3.218-14.768-14.49z"
         id="path115" />
      <path
         fill="#7024bc"
         d="M287.74 700.015c-2.65-3.622-9.655-3.823-10.224 6.037-.568 9.86 4.353 37.63 6.815 53.125 2.46 15.495 4.545 32.802 7.953 39.846 3.408 7.043 10.98 6.639 12.495 2.413 1.515-4.226-1.514-15.496-3.407-27.77-1.893-12.276-5.68-33.606-7.951-45.88-2.272-12.276-3.03-24.149-5.68-27.771zm34.143-5.862c-2.65-3.622-9.656-3.823-10.224 6.037-.569 9.86 4.353 37.63 6.814 53.125 2.461 15.495 4.546 32.803 7.954 39.846 3.408 7.043 10.98 6.64 12.494 2.413 1.515-4.226-1.514-15.496-3.407-27.77-1.893-12.276-5.679-33.606-7.95-45.88-2.273-12.276-3.03-24.149-5.681-27.771z"
         id="path116" />
      <path
         fill="#dbc545"
         d="M813.935 763.59c-3.257-4.273-13.261-5.098-15.548 5.867-2.286 10.965.618 42.404 1.83 59.923 1.212 17.518 1.614 37.028 5.444 45.187 3.83 8.159 14.738 8.357 17.538 3.767 2.801-4.59.145-17.438-.734-31.31-.879-13.874-3.118-38.023-4.54-51.928-1.421-13.906-.734-27.232-3.99-31.506z"
         id="path117" />
      <path
         fill="#ef4423"
         d="M774.036 806.854c-2.438-17.814-4.998-72.955-4.089-92.206.91-19.252 4.677-18.028 9.545-23.304 4.869-5.276 13.973-6.75 19.667-8.352 5.693-1.602 10.354-1.986 14.496-1.262 4.143.725 7.256 2.015 10.36 5.61 3.102 3.593 5.872 1.809 8.259 15.953 2.386 14.145 4.778 51.378 6.058 68.914 1.28 17.535 5.477 28.823 1.623 36.299-3.853 7.475-15.514 6.382-24.743 8.553-9.23 2.172-23.77 6.178-30.633 4.477-6.863-1.7-8.104 3.133-10.543-14.682z"
         id="path118" />
      <path
         fill="#f90"
         d="M769.775 706.301c-.862 3.235-1.2 18.49.393 22.365 1.592 3.875 3.787.738 9.162.882 5.374.145 16.157-1.034 23.086-.015 6.93 1.019 13.134 3.868 18.49 6.129 5.355 2.26 11.551 10.067 13.642 7.437 2.09-2.631.939-18.935-1.098-23.222-2.037-4.286-5.693-1.471-11.123-2.5-5.43-1.03-13.624-2.32-21.455-3.674-7.831-1.354-20.349-3.214-25.531-4.448-5.183-1.234-4.704-6.19-5.566-2.954zm66.892 59.359c-4.19-4.246-16.556-8.569-23.75-10.6-7.195-2.03-12.826-.913-19.416-1.582-6.589-.67-16.45-5.172-20.12-2.435-3.668 2.736-2.194 14.273-1.89 18.854.302 4.581.822 7.66 3.709 8.633 2.886.973 9.022-1.61 13.609-2.795 4.587-1.185 8.239-4.57 13.914-4.313 5.674.256 14.246 4.33 20.134 5.85 5.888 1.52 12.892 5.205 15.194 3.27 2.301-1.935 2.805-10.634-1.384-14.881zm4.591 37.258c-2.772-1.968-13.55-3.552-21.455-3.674-7.905-.12-17.963 3.131-25.972 2.947-8.008-.185-19.378-6.95-22.08-4.054-2.702 2.897 2.621 17.76 5.87 21.436 3.247 3.675 8.754.71 13.618.616 4.865-.095 9.625-.254 15.569-1.181 5.944-.928 15.157-3.06 20.095-4.387 4.938-1.326 7.14-1.618 9.533-3.569 2.392-1.95 7.594-6.166 4.822-8.134z"
         id="path119" />
      <path
         fill="#dbc545"
         d="M425.381 765.296c2.7-4.532 11.754-6.203 14.514 4.52 2.76 10.724 2.065 42.276 2.047 59.822-.018 17.546.825 37.007-2.156 45.456-2.98 8.45-12.896 9.574-15.73 5.24-2.833-4.332-1.211-17.35-1.27-31.238-.06-13.888.482-38.124.915-52.09.432-13.967-1.019-27.179 1.68-31.71z"
         id="path120" />
      <path
         fill="#9fef16"
         d="M464.376 804.985c1.116-17.946.03-73.067-1.99-92.16-2.021-19.091-5.374-17.553-10.132-22.392-4.758-4.84-13.135-5.534-18.417-6.646-5.281-1.112-9.547-1.098-13.272-.025-3.726 1.074-6.48 2.623-9.081 6.465-2.602 3.842-5.233 2.3-6.53 16.587-1.295 14.287-1.166 51.565-1.245 69.134-.079 17.569-3.199 29.165.772 36.281 3.97 7.116 14.516 5.037 23.05 6.415 8.535 1.379 22.018 4.132 28.158 1.856 6.141-2.277 7.57 2.43 8.687-15.515z"
         id="path121" />
      <path
         fill="#fff31d"
         d="M462.025 704.5c.985 3.148 2.237 18.31 1.028 22.303-1.21 3.993-3.402 1.056-8.284 1.657-4.883.6-14.77.342-21.013 1.945-6.244 1.604-11.715 4.967-16.45 7.674-4.733 2.706-9.89 11.005-11.956 8.564-2.065-2.442-2.027-18.774-.438-23.215 1.588-4.442 5.09-1.95 9.968-3.435 4.878-1.486 12.256-3.468 19.3-5.481 7.044-2.013 18.322-4.93 22.962-6.598 4.641-1.668 3.898-6.562 4.883-3.414zm-57.205 64.788c3.55-4.584 14.537-9.939 20.96-12.572 6.422-2.633 11.617-1.999 17.572-3.226 5.956-1.226 14.653-6.547 18.162-4.133 3.508 2.413 2.881 14.025 2.89 18.613.007 4.587-.275 7.697-2.842 8.91-2.567 1.215-8.311-.837-12.56-1.627-4.248-.79-7.782-3.849-12.93-3.112-5.15.737-12.7 5.521-17.964 7.535-5.265 2.014-11.411 6.279-13.626 4.548-2.215-1.732-3.212-10.351.338-14.936zm-1.871 37.488c2.401-2.195 12.113-4.688 19.3-5.48 7.187-.793 16.543 1.591 23.82.727 7.279-.864 17.208-8.567 19.846-5.912 2.639 2.655-1.285 17.907-4.014 21.843-2.729 3.935-7.924 1.45-12.357 1.77-4.433.319-8.776.565-14.243.146-5.468-.419-13.986-1.76-18.562-2.66-4.577-.9-6.6-1.005-8.898-2.744-2.298-1.74-7.293-5.495-4.892-7.69z"
         id="path122" />
      <path
         fill="#dbc545"
         d="M179.783 768.753c2.699-4.531 11.754-6.203 14.514 4.52 2.76 10.725 2.065 42.276 2.046 59.822-.018 17.547.825 37.007-2.156 45.457-2.98 8.45-12.895 9.573-15.729 5.24-2.833-4.333-1.212-17.35-1.27-31.239-.06-13.888.482-38.123.914-52.09.433-13.967-1.018-27.178 1.68-31.71z"
         id="path123" />
      <path
         fill="#13ceff"
         d="M218.777 808.442c1.116-17.945.03-73.067-1.99-92.159-2.02-19.092-5.373-17.553-10.131-22.393s-13.136-5.534-18.417-6.646c-5.282-1.111-9.547-1.098-13.273-.024-3.725 1.073-6.479 2.623-9.08 6.465-2.602 3.842-5.234 2.3-6.53 16.587-1.295 14.287-1.166 51.564-1.245 69.133-.08 17.57-3.2 29.166.771 36.282 3.97 7.116 14.516 5.036 23.05 6.415 8.536 1.378 22.018 4.132 28.159 1.855 6.14-2.276 7.57 2.431 8.686-15.514z"
         id="path124" />
      <path
         fill="#9831ff"
         d="M216.427 707.958c.985 3.148 2.237 18.31 1.027 22.303-1.209 3.993-3.4 1.056-8.284 1.656-4.883.6-14.77.343-21.013 1.946-6.244 1.603-11.714 4.967-16.449 7.673-4.734 2.706-9.89 11.006-11.956 8.564-2.066-2.442-2.027-18.773-.439-23.215s5.09-1.949 9.969-3.435c4.878-1.486 12.256-3.468 19.3-5.48 7.043-2.014 18.321-4.93 22.962-6.598 4.64-1.669 3.898-6.562 4.883-3.414zm-57.206 64.788c3.55-4.585 14.538-9.94 20.96-12.572 6.422-2.633 11.617-2 17.573-3.226 5.956-1.227 14.653-6.547 18.161-4.134 3.509 2.413 2.882 14.026 2.89 18.613.008 4.588-.275 7.697-2.842 8.911-2.567 1.214-8.31-.837-12.56-1.627-4.248-.79-7.781-3.85-12.93-3.112-5.15.737-12.699 5.52-17.964 7.534-5.265 2.014-11.41 6.28-13.626 4.548-2.214-1.731-3.211-10.35.338-14.935zm-1.871 37.488c2.402-2.195 12.114-4.689 19.3-5.481 7.187-.792 16.544 1.592 23.821.728 7.278-.864 17.207-8.567 19.846-5.912 2.638 2.655-1.286 17.907-4.014 21.842-2.729 3.936-7.924 1.45-12.357 1.77-4.434.32-8.776.566-14.244.147-5.467-.42-13.985-1.76-18.562-2.66-4.576-.901-6.599-1.006-8.897-2.745s-7.294-5.494-4.893-7.69z"
         id="path125" />
      <path
         fill="#dbc545"
         d="M68.47 767.436c1.856-4.316 8.8-6.001 11.516 4.11 2.716 10.11 3.86 39.96 4.782 56.556.922 16.595 2.615 34.991.75 43.017-1.865 8.026-9.506 9.203-11.939 5.137-2.432-4.065-1.866-16.396-2.654-29.53-.787-13.136-1.659-36.064-2.068-49.28-.409-13.214-2.241-25.693-.386-30.01zm28.44.167c1.855-4.317 8.799-6.002 11.515 4.11 2.716 10.11 3.86 39.96 4.781 56.555.922 16.596 2.616 34.992.75 43.018-1.864 8.026-9.506 9.203-11.938 5.137-2.432-4.066-1.867-16.396-2.654-29.531-.787-13.135-1.659-36.064-2.068-49.278-.41-13.215-2.241-25.694-.386-30.01z"
         id="path126" />
      <path
         fill="#f90"
         d="M129.108 802.263c1.262-17.468-.781-70.396-4.327-88.216-3.547-17.82-10.348-16.383-16.95-18.702-6.602-2.32-15.589 4.662-22.664 4.788-7.075.127-13.394-4.596-19.785-4.028-6.39.568-15.03 3.566-18.557 7.438-3.526 3.872-2.558 1.909-2.6 15.795-.042 13.887 1.501 51.284 2.349 67.524.847 16.24-2.459 23.977 2.735 29.916 5.193 5.94 17.107 5.375 28.424 5.72 11.316.346 30.911-.273 39.474-3.646 8.562-3.372 10.639.878 11.9-16.59z"
         id="path127" />
      <path
         fill="#d88100"
         d="M97.804 709.58c1.936-3.928 8.885-5.59 11.379 3.46 2.493 9.05 3.01 35.915 3.581 50.844.572 14.93 1.875 31.465-.15 38.734-2.023 7.269-9.656 8.49-11.992 4.878-2.337-3.611-1.517-14.73-2.027-26.546-.51-11.815-.9-32.45-1.032-44.345-.132-11.895-1.696-23.098.24-27.025zm-35.206 1.744c1.937-3.927 8.886-5.59 11.38 3.46 2.493 9.05 3.009 35.915 3.581 50.845.572 14.93 1.874 31.465-.15 38.733-2.023 7.269-9.656 8.49-11.993 4.878-2.336-3.611-1.517-14.73-2.026-26.546-.51-11.815-.9-32.45-1.032-44.345-.132-11.895-1.696-23.097.24-27.025z"
         id="path128" />
      <path
         fill="#dbc545"
         d="M-44.928 762.533c2.867-3.719 10.012-3.618 10.137 6.852.125 10.471-6.166 39.668-9.386 55.972-3.22 16.305-6.14 34.545-9.936 41.854-3.795 7.308-11.49 6.542-12.838 1.998-1.348-4.545 2.255-16.347 4.749-29.266 2.493-12.919 7.33-35.344 10.21-48.246 2.879-12.902 4.197-25.446 7.064-29.164zm27.508 7.255c2.867-3.718 10.011-3.618 10.136 6.853.126 10.47-6.165 39.667-9.386 55.972-3.22 16.304-6.14 34.545-9.935 41.853-3.796 7.309-11.49 6.543-12.838 1.998-1.349-4.545 2.255-16.347 4.748-29.266 2.494-12.918 7.332-35.344 10.21-48.246 2.88-12.901 4.198-25.445 7.065-29.164z"
         id="path129" />
      <path
         fill="#9fef16"
         d="M5.18 811.39c5.552-16.603 16.691-68.379 17.673-86.523.982-18.145-5.963-18.45-11.784-22.343-5.82-3.893-16.256.627-23.141-1.015-6.885-1.642-11.836-7.793-18.168-8.837-6.331-1.044-15.445-.296-19.82 2.575-4.376 2.871-2.951 1.21-6.434 14.65-3.482 13.44-11.256 50.048-14.46 65.99-3.205 15.94-8.325 22.61-4.767 29.658 3.56 7.048 15.24 9.473 26.117 12.63 10.877 3.158 30.013 7.446 39.143 6.315 9.131-1.13 10.089 3.505 15.64-13.1z"
         id="path130" />
      <path
         fill="#8fd613"
         d="M-2.173 713.81c2.85-3.32 9.994-3.198 10.166 6.19.172 9.389-5.987 35.538-9.133 50.141-3.146 14.603-5.983 30.944-9.745 37.48-3.762 6.535-11.459 5.814-12.827 1.733-1.368-4.08 2.181-14.646 4.616-26.218 2.435-11.57 7.171-31.655 9.992-43.21 2.82-11.554 4.082-22.794 6.931-26.115zm-34.536-7.092c2.85-3.32 9.994-3.198 10.166 6.19.172 9.389-5.987 35.537-9.133 50.14-3.146 14.604-5.983 30.945-9.745 37.48-3.762 6.536-11.459 5.814-12.827 1.733-1.369-4.08 2.181-14.646 4.616-26.217 2.435-11.571 7.171-31.656 9.992-43.21 2.82-11.554 4.082-22.795 6.931-26.116z"
         id="path131" />
      <path
         fill="#dbc545"
         d="M1046.603 771.39c-2.693-3.962-10.241-4.507-11.308 5.912-1.067 10.418 2.965 40.068 4.907 56.599 1.942 16.53 3.394 34.963 6.747 42.585 3.353 7.622 11.54 7.553 13.369 3.148 1.829-4.406-.92-16.487-2.398-29.58-1.477-13.092-4.58-35.867-6.466-48.977-1.886-13.11-2.158-25.724-4.85-29.687zm-29.675 4.747c-2.693-3.962-10.24-4.506-11.308 5.912-1.067 10.418 2.965 40.068 4.907 56.599 1.942 16.53 3.394 34.963 6.747 42.585 3.353 7.622 11.54 7.553 13.37 3.148 1.828-4.406-.921-16.487-2.399-29.58-1.477-13.092-4.58-35.866-6.466-48.977-1.886-13.11-2.157-25.724-4.85-29.687z"
         id="path132" />
      <path
         fill="#ef4423"
         d="M989.366 815.54c-4.377-17.04-11.508-69.617-10.924-87.779.584-18.162 7.94-17.84 14.43-21.193 6.49-3.353 17.098 2.09 24.51 1.075 7.411-1.015 13.185-6.696 19.96-7.164 6.774-.469 16.324 1.098 20.685 4.352 4.36 3.254 3.006 1.472 5.48 15.173 2.475 13.7 7.41 50.866 9.368 67.033 1.958 16.168 6.765 23.273 2.381 29.973-4.384 6.7-16.928 8.062-28.687 10.226-11.76 2.165-32.335 4.711-41.869 2.762-9.533-1.95-10.958 2.58-15.334-14.459z"
         id="path133" />
      <path
         fill="#d03b1e"
         d="M1005.837 719.004c-2.71-3.564-10.26-4.087-11.28 5.25-1.02 9.336 3.144 35.937 5.16 50.767 2.017 14.83 3.551 31.363 6.938 38.212 3.386 6.849 11.572 6.823 13.38 2.882 1.809-3.941-.994-14.785-2.53-26.53-1.536-11.746-4.74-32.179-6.685-43.942-1.945-11.763-2.273-23.074-4.983-26.639zm37.077-3.951c-2.71-3.565-10.26-4.087-11.28 5.25-1.02 9.336 3.144 35.937 5.16 50.767 2.017 14.83 3.551 31.362 6.938 38.211 3.386 6.85 11.572 6.824 13.38 2.883 1.808-3.941-.994-14.786-2.53-26.53-1.536-11.746-4.741-32.179-6.686-43.942-1.944-11.764-2.272-23.074-4.982-26.639z"
         id="path134" />
    </g>
    <path
       fill="url(#e)"
       d="M315.85 191.12h158.68v93.15H315.85z"
       filter="url(#f)"
       opacity=".8"
       style="mix-blend-mode:luminosity"
       transform="rotate(-46.2 48.463 42.16) scale(.0963)"
       id="path135" />
    <use
       xlink:href="#g"
       clip-path="url(#h)"
       id="use135" />
  </g>
  <path
     fill="#fff"
     d="M6.974 44.211a.28.28 0 0 0-.179.055.269.269 0 0 0-.057.377.269.269 0 0 0 .378.057.269.269 0 0 0 .057-.377.267.267 0 0 0-.189-.11l-.01-.002zm2.14-1.556a.275.275 0 0 0-.189.053.269.269 0 0 0-.057.377.266.266 0 0 0 .376.057.269.269 0 0 0-.117-.485l-.013-.002zm2.13-1.558-.015-.001a.273.273 0 0 0-.176.053.269.269 0 0 0-.057.378.269.269 0 0 0 .377.057.269.269 0 0 0 .057-.378.268.268 0 0 0-.186-.11zm2.128-1.559h-.015a.265.265 0 0 0-.174.053.269.269 0 1 0 .318.434.269.269 0 0 0 .06-.377.273.273 0 0 0-.19-.11zm2.115-1.558a.27.27 0 1 0 .144.487.269.269 0 0 0-.133-.486l-.011-.002zm2.13-1.559a.27.27 0 0 0-.176.054.269.269 0 0 0-.06.377.269.269 0 1 0 .435-.319.267.267 0 0 0-.189-.11l-.01-.002zm2.128-1.558a.275.275 0 0 0-.177.055.269.269 0 0 0-.057.377.269.269 0 0 0 .377.057.269.269 0 0 0 .058-.377.273.273 0 0 0-.19-.11l-.011-.002zm2.14-1.556a.275.275 0 0 0-.189.052.269.269 0 0 0-.057.378.269.269 0 0 0 .377.057.269.269 0 0 0 .058-.377.267.267 0 0 0-.176-.108l-.013-.002zm2.132-1.558h-.015a.273.273 0 0 0-.176.052.269.269 0 0 0-.057.378.269.269 0 0 0 .377.057.269.269 0 0 0 .057-.377.268.268 0 0 0-.186-.11zm2.128-1.559h-.015a.273.273 0 0 0-.176.053.269.269 0 0 0-.057.377.269.269 0 0 0 .377.058.269.269 0 0 0 .057-.378.268.268 0 0 0-.186-.11zm2.115-1.558a.27.27 0 1 0 .144.487.269.269 0 0 0-.133-.485l-.011-.002zm2.13-1.558a.275.275 0 0 0-.178.052.269.269 0 0 0-.058.378.269.269 0 1 0 .435-.319.267.267 0 0 0-.189-.11l-.01-.001zm2.127-1.559a.275.275 0 0 0-.176.055.269.269 0 0 0-.057.378.266.266 0 0 0 .375.056.269.269 0 0 0 .06-.377.273.273 0 0 0-.19-.11l-.012-.002zm2.141-1.556a.275.275 0 0 0-.189.053.269.269 0 0 0-.057.377.269.269 0 0 0 .377.057.269.269 0 0 0 .057-.377.267.267 0 0 0-.175-.108l-.013-.002zm2.13-1.559h-.015a.265.265 0 0 0-.174.054.269.269 0 0 0-.057.377.266.266 0 0 0 .375.057.269.269 0 0 0 .06-.377.273.273 0 0 0-.19-.11zm2.13-1.557-.015-.001a.273.273 0 0 0-.176.053.269.269 0 0 0-.057.378.269.269 0 0 0 .377.057.269.269 0 0 0 .057-.378.268.268 0 0 0-.186-.11zm2.114-1.559a.27.27 0 0 0-.176.053.269.269 0 1 0 .319.434.269.269 0 0 0-.132-.485l-.01-.002zm2.128-1.559a.27.27 0 0 0-.176.054.269.269 0 0 0-.057.377.269.269 0 1 0 .434-.318.273.273 0 0 0-.19-.11l-.01-.003zM6.688 46.055a.275.275 0 0 0-.178.053.269.269 0 0 0-.057.377.269.269 0 0 0 .377.057.269.269 0 0 0-.131-.485l-.011-.002zm2.128-1.558a.27.27 0 1 0 .144.487.266.266 0 0 0 .057-.375.273.273 0 0 0-.19-.11l-.011-.002zm2.129-1.559a.28.28 0 0 0-.178.055.266.266 0 0 0-.057.376.269.269 0 1 0 .435-.319.267.267 0 0 0-.189-.11l-.01-.002zm2.141-1.556a.275.275 0 0 0-.189.053.269.269 0 0 0-.057.377.269.269 0 0 0 .377.058.269.269 0 0 0 .057-.378.267.267 0 0 0-.175-.108l-.013-.002zm2.13-1.558H15.2a.273.273 0 0 0-.176.053.269.269 0 0 0-.057.377.269.269 0 0 0 .377.057.269.269 0 0 0 .057-.377.268.268 0 0 0-.186-.11zm2.13-1.558h-.015a.273.273 0 0 0-.176.053.269.269 0 0 0-.057.377.266.266 0 0 0 .375.057.269.269 0 0 0 .06-.377.268.268 0 0 0-.187-.11zm2.114-1.559a.275.275 0 0 0-.177.053.269.269 0 0 0-.057.377.269.269 0 0 0 .377.058.269.269 0 0 0-.132-.486l-.01-.002zm2.128-1.558a.27.27 0 0 0-.233.43.266.266 0 0 0 .376.057.266.266 0 0 0 .059-.375.273.273 0 0 0-.19-.11l-.012-.002zm2.128-1.559a.275.275 0 0 0-.176.055.266.266 0 0 0-.057.376.269.269 0 1 0 .434-.318.273.273 0 0 0-.19-.11l-.01-.003zm2.141-1.556a.27.27 0 0 0-.187.053.269.269 0 1 0 .318.434.269.269 0 0 0-.118-.485l-.013-.002zm2.132-1.558h-.015a.273.273 0 0 0-.176.053.269.269 0 0 0-.057.377.269.269 0 0 0 .377.057.269.269 0 0 0 .057-.377.268.268 0 0 0-.186-.11zm2.128-1.558h-.015a.265.265 0 0 0-.174.053.269.269 0 1 0 .318.434.269.269 0 0 0 .057-.377.268.268 0 0 0-.186-.11zm2.114-1.559a.27.27 0 1 0 .145.488.269.269 0 0 0-.134-.486l-.01-.002zm2.13-1.559a.275.275 0 0 0-.178.054.269.269 0 0 0-.057.377.269.269 0 0 0 .378.057.266.266 0 0 0 .057-.375.267.267 0 0 0-.189-.11l-.01-.002zm2.129-1.558a.275.275 0 0 0-.177.056.266.266 0 0 0-.057.375.269.269 0 1 0 .434-.318.273.273 0 0 0-.19-.11l-.01-.002zm2.14-1.556a.275.275 0 0 0-.19.053.269.269 0 0 0-.056.377.269.269 0 0 0 .377.058.269.269 0 0 0 .057-.378.267.267 0 0 0-.175-.107l-.013-.003zm2.131-1.557-.014-.001a.273.273 0 0 0-.176.053.269.269 0 0 0-.058.377.269.269 0 0 0 .378.058.269.269 0 0 0 .057-.378.268.268 0 0 0-.187-.11zm2.129-1.559h-.015a.273.273 0 0 0-.176.053.269.269 0 0 0-.058.377.269.269 0 0 0 .378.057.269.269 0 0 0 .057-.377.268.268 0 0 0-.187-.11zm2.114-1.559a.27.27 0 0 0-.233.43.266.266 0 0 0 .376.058.269.269 0 0 0-.132-.486l-.01-.002zM8.679 46.526h-.015a.265.265 0 0 0-.174.053.269.269 0 1 0 .318.434.269.269 0 0 0 .06-.377.273.273 0 0 0-.19-.11zm2.129-1.558-.014-.001a.273.273 0 0 0-.176.053.269.269 0 0 0-.058.378.269.269 0 0 0 .378.057.269.269 0 0 0 .057-.378.268.268 0 0 0-.187-.11zm2.115-1.559a.27.27 0 0 0-.176.053.269.269 0 1 0 .319.434.269.269 0 0 0-.132-.485l-.01-.002zm2.128-1.559a.27.27 0 1 0 .145.488.266.266 0 0 0 .056-.375.273.273 0 0 0-.19-.11l-.01-.003zm2.13-1.558a.28.28 0 0 0-.178.055.266.266 0 0 0-.057.376.269.269 0 1 0 .434-.319.267.267 0 0 0-.188-.11l-.01-.002zm2.141-1.556a.275.275 0 0 0-.19.053.269.269 0 0 0-.056.377.269.269 0 0 0 .377.057.269.269 0 0 0 .057-.377.267.267 0 0 0-.176-.108l-.012-.002zm2.13-1.558h-.015a.273.273 0 0 0-.176.053.269.269 0 0 0-.057.377.269.269 0 0 0 .377.057.269.269 0 0 0 .057-.377.268.268 0 0 0-.187-.11zm2.129-1.558h-.015a.273.273 0 0 0-.176.052.269.269 0 0 0-.057.378.269.269 0 0 0 .378.057.269.269 0 0 0 .057-.377.268.268 0 0 0-.187-.11zm2.115-1.559a.275.275 0 0 0-.178.053.269.269 0 0 0-.057.377.269.269 0 0 0 .378.058.269.269 0 0 0-.132-.486l-.01-.002zm2.128-1.558a.27.27 0 0 0-.233.43.266.266 0 0 0 .376.057.266.266 0 0 0 .058-.375.273.273 0 0 0-.19-.11l-.01-.002zm2.13-1.558a.28.28 0 0 0-.178.054.266.266 0 0 0-.057.376.269.269 0 1 0 .434-.319.267.267 0 0 0-.188-.11l-.011-.001zm2.141-1.557a.275.275 0 0 0-.19.053.269.269 0 1 0 .319.434.269.269 0 0 0-.117-.484l-.012-.003zm2.129-1.558h-.015a.273.273 0 0 0-.176.053.269.269 0 0 0-.057.377.269.269 0 0 0 .378.057.269.269 0 0 0 .057-.377.268.268 0 0 0-.187-.11zm2.128-1.558h-.015a.265.265 0 0 0-.174.053.269.269 0 1 0 .319.434.269.269 0 0 0 .057-.378.268.268 0 0 0-.187-.11zm2.115-1.559a.27.27 0 1 0 .144.488.269.269 0 0 0-.133-.486l-.01-.002zm2.13-1.558a.27.27 0 0 0-.176.053.269.269 0 1 0 .318.434.266.266 0 0 0 .057-.375.267.267 0 0 0-.188-.11l-.011-.002zm2.128-1.559a.275.275 0 0 0-.176.055.266.266 0 0 0-.057.376.269.269 0 1 0 .434-.318.273.273 0 0 0-.19-.11l-.011-.003zm2.141-1.556a.275.275 0 0 0-.19.053.269.269 0 0 0-.057.377.269.269 0 0 0 .378.058.269.269 0 0 0 .057-.378.267.267 0 0 0-.176-.108l-.012-.002zm2.131-1.558h-.015a.273.273 0 0 0-.176.053.269.269 0 0 0-.057.377.269.269 0 0 0 .378.057.269.269 0 0 0 .057-.377.268.268 0 0 0-.187-.11zM8.38 48.368a.275.275 0 0 0-.176.055.266.266 0 0 0-.057.375.269.269 0 1 0 .434-.318.273.273 0 0 0-.19-.11l-.01-.002zm2.14-1.557a.275.275 0 0 0-.188.053.269.269 0 0 0-.057.378.269.269 0 0 0 .377.057.269.269 0 0 0 .057-.378.267.267 0 0 0-.175-.107l-.013-.003zm2.13-1.558h-.014a.265.265 0 0 0-.174.053.269.269 0 0 0-.058.377.266.266 0 0 0 .376.057.269.269 0 0 0 .059-.377.273.273 0 0 0-.188-.11zm2.13-1.558h-.015a.273.273 0 0 0-.175.053.269.269 0 0 0-.058.377.269.269 0 0 0 .378.057.269.269 0 0 0 .057-.377.268.268 0 0 0-.187-.11zm2.115-1.559a.27.27 0 0 0-.176.053.269.269 0 1 0 .319.435.269.269 0 0 0-.132-.486l-.01-.002zm2.128-1.558a.27.27 0 1 0 .144.488.266.266 0 0 0 .057-.376.273.273 0 0 0-.19-.11l-.01-.002zm2.13-1.558a.275.275 0 0 0-.176.055.266.266 0 0 0-.059.375.269.269 0 1 0 .434-.318.267.267 0 0 0-.188-.11l-.011-.002zm2.141-1.556a.275.275 0 0 0-.19.052.269.269 0 0 0-.057.378.269.269 0 0 0 .378.057.269.269 0 0 0 .057-.378.267.267 0 0 0-.176-.107l-.012-.002zm2.129-1.559h-.014a.265.265 0 0 0-.175.053.269.269 0 1 0 .319.434.269.269 0 0 0 .057-.377.268.268 0 0 0-.187-.11zm2.13-1.558h-.015a.273.273 0 0 0-.176.053.269.269 0 0 0-.057.377.269.269 0 0 0 .378.057.269.269 0 0 0 .057-.377.268.268 0 0 0-.187-.11zm2.128-1.558h-.015a.273.273 0 0 0-.176.052.269.269 0 0 0-.057.378.269.269 0 0 0 .378.057.269.269 0 0 0 .057-.377.268.268 0 0 0-.187-.11zm2.115-1.559a.27.27 0 1 0 .144.488.266.266 0 0 0 .057-.376.273.273 0 0 0-.19-.11l-.011-.002zm2.13-1.558a.28.28 0 0 0-.178.055.266.266 0 0 0-.057.375.269.269 0 1 0 .434-.318.267.267 0 0 0-.188-.11l-.011-.002zm2.14-1.556a.275.275 0 0 0-.189.053.269.269 0 0 0-.057.377.266.266 0 0 0 .376.057.269.269 0 0 0-.117-.485l-.013-.002zm2.13-1.558-.015-.001a.273.273 0 0 0-.176.053.269.269 0 0 0-.057.378.269.269 0 0 0 .378.057.269.269 0 0 0 .057-.378.268.268 0 0 0-.187-.11zM40.324 25l-.015-.002a.265.265 0 0 0-.174.054.269.269 0 0 0-.057.377.266.266 0 0 0 .376.057.269.269 0 0 0 .059-.377.273.273 0 0 0-.189-.11zm2.13-1.559h-.015a.273.273 0 0 0-.176.053.269.269 0 0 0-.057.377.269.269 0 0 0 .377.057.269.269 0 0 0 .057-.377.268.268 0 0 0-.186-.11zm2.115-1.559a.27.27 0 0 0-.176.053.269.269 0 1 0 .318.435.266.266 0 0 0 .059-.376.273.273 0 0 0-.19-.11l-.011-.002zm2.128-1.558a.275.275 0 0 0-.177.055.266.266 0 0 0-.056.375.269.269 0 1 0 .434-.318.273.273 0 0 0-.19-.11l-.011-.002zM10.394 48.887a.27.27 0 1 0 .145.488.266.266 0 0 0 .056-.375.273.273 0 0 0-.19-.11l-.01-.003zm2.13-1.557a.27.27 0 0 0-.176.053.269.269 0 0 0-.059.377.269.269 0 1 0 .434-.319.267.267 0 0 0-.188-.11l-.01-.002zm2.141-1.557a.275.275 0 0 0-.19.053.269.269 0 0 0-.056.377.269.269 0 0 0 .377.057.269.269 0 0 0 .057-.377.267.267 0 0 0-.176-.108l-.012-.002zm2.128-1.558a.275.275 0 0 0-.19.052.269.269 0 0 0-.056.378.269.269 0 0 0 .377.057.269.269 0 0 0 .057-.377.267.267 0 0 0-.176-.108l-.012-.002zm2.131-1.558h-.015a.273.273 0 0 0-.176.052.269.269 0 0 0-.057.378.269.269 0 0 0 .378.057.269.269 0 0 0 .057-.377.268.268 0 0 0-.187-.11zm2.128-1.559h-.015a.273.273 0 0 0-.176.053.269.269 0 0 0-.057.377.269.269 0 0 0 .378.058.269.269 0 0 0 .057-.378.268.268 0 0 0-.187-.11zm2.115-1.558a.27.27 0 0 0-.176.053.269.269 0 0 0-.057.377.269.269 0 0 0 .377.057.266.266 0 0 0 .057-.375.273.273 0 0 0-.19-.11l-.01-.002zm2.13-1.558a.275.275 0 0 0-.178.052.269.269 0 0 0-.057.378.269.269 0 1 0 .434-.319.267.267 0 0 0-.188-.11l-.011-.001zm2.141-1.557a.275.275 0 0 0-.19.053.269.269 0 0 0-.057.377.266.266 0 0 0 .376.057.269.269 0 0 0-.117-.484l-.012-.003zm2.128-1.558a.275.275 0 0 0-.19.053.269.269 0 0 0-.057.377.269.269 0 0 0 .378.057.269.269 0 0 0 .057-.377.267.267 0 0 0-.176-.108l-.012-.002zm2.129-1.558h-.015a.265.265 0 0 0-.174.053.269.269 0 1 0 .319.434.269.269 0 0 0 .059-.377.273.273 0 0 0-.189-.11zm2.13-1.559h-.015a.273.273 0 0 0-.176.053.269.269 0 0 0-.057.378.269.269 0 0 0 .377.057.269.269 0 0 0 .058-.378.268.268 0 0 0-.187-.11zm2.115-1.558a.27.27 0 0 0-.176.053.269.269 0 1 0 .318.434.266.266 0 0 0 .057-.375.267.267 0 0 0-.188-.11l-.011-.002zm2.128-1.559a.27.27 0 0 0-.233.431.269.269 0 1 0 .434-.318.273.273 0 0 0-.19-.11l-.011-.003zm2.141-1.556a.275.275 0 0 0-.19.053.269.269 0 0 0-.057.377.269.269 0 0 0 .378.058.269.269 0 0 0 .057-.378.267.267 0 0 0-.176-.108l-.012-.002zm2.129-1.557a.275.275 0 0 0-.189.052.269.269 0 0 0-.057.377.269.269 0 0 0 .378.057.269.269 0 0 0 .057-.377.267.267 0 0 0-.176-.108l-.013-.002zm2.13-1.559h-.015a.273.273 0 0 0-.176.052.269.269 0 0 0-.057.378.269.269 0 0 0 .378.057.269.269 0 0 0 .057-.377.268.268 0 0 0-.187-.11zm2.13-1.558h-.015a.273.273 0 0 0-.176.052.269.269 0 0 0-.057.378.269.269 0 0 0 .377.057.269.269 0 0 0 .057-.377.268.268 0 0 0-.186-.11zm2.115-1.559a.275.275 0 0 0-.178.053.269.269 0 0 0-.057.377.269.269 0 0 0 .377.057.266.266 0 0 0 .057-.375.267.267 0 0 0-.188-.11l-.011-.002zm-38.59 29.888h-.015a.273.273 0 0 0-.175.053.269.269 0 0 0-.058.377.269.269 0 0 0 .378.057.269.269 0 0 0 .057-.377.268.268 0 0 0-.187-.11zm2.128-1.558-.015-.001a.265.265 0 0 0-.174.054.269.269 0 0 0-.057.377.266.266 0 0 0 .376.057.269.269 0 0 0 .059-.377.273.273 0 0 0-.189-.11zm2.115-1.559a.27.27 0 1 0 .144.488.269.269 0 0 0-.133-.486l-.01-.002zm2.13-1.558a.27.27 0 0 0-.176.053.269.269 0 0 0-.059.377.27.27 0 0 0 .377.059.269.269 0 0 0 .06-.377.273.273 0 0 0-.191-.11l-.011-.002zm2.128-1.559a.275.275 0 0 0-.176.055.269.269 0 0 0-.058.378.269.269 0 0 0 .378.057.269.269 0 0 0 .057-.378.273.273 0 0 0-.19-.11l-.011-.002zm2.141-1.556a.27.27 0 0 0-.188.053.269.269 0 1 0 .319.434.269.269 0 0 0 .057-.377.267.267 0 0 0-.176-.108l-.012-.002zm2.131-1.558h-.015a.273.273 0 0 0-.176.053.269.269 0 0 0-.057.377.269.269 0 0 0 .378.057.269.269 0 0 0 .057-.377.268.268 0 0 0-.187-.11zm2.128-1.558h-.015a.273.273 0 0 0-.176.052.269.269 0 0 0-.057.378.269.269 0 0 0 .378.057.269.269 0 0 0 .057-.377.268.268 0 0 0-.187-.11zm2.115-1.559a.27.27 0 1 0 .144.488.269.269 0 0 0-.133-.486l-.01-.002zm2.13-1.558a.275.275 0 0 0-.178.053.269.269 0 0 0-.057.377.269.269 0 1 0 .434-.318.267.267 0 0 0-.188-.11l-.011-.002zm2.128-1.559a.275.275 0 0 0-.177.055.269.269 0 0 0-.057.378.269.269 0 0 0 .378.057.269.269 0 0 0 .057-.377.273.273 0 0 0-.19-.11l-.011-.003zm2.14-1.556a.275.275 0 0 0-.189.053.269.269 0 0 0-.057.377.269.269 0 0 0 .378.058.269.269 0 0 0 .057-.378.267.267 0 0 0-.176-.108l-.013-.002zm2.132-1.558h-.015a.273.273 0 0 0-.176.053.269.269 0 0 0-.057.377.266.266 0 0 0 .376.057.269.269 0 0 0 .059-.377.268.268 0 0 0-.187-.11zm2.128-1.558h-.015a.273.273 0 0 0-.176.053.269.269 0 0 0-.057.377.269.269 0 0 0 .377.057.269.269 0 0 0 .058-.377.268.268 0 0 0-.187-.11zm2.115-1.558a.27.27 0 0 0-.233.43.266.266 0 0 0 .375.057.269.269 0 0 0-.131-.486l-.011-.002zm2.128-1.56a.27.27 0 0 0-.233.431.269.269 0 1 0 .434-.318.273.273 0 0 0-.19-.11l-.011-.002zm2.13-1.557a.275.275 0 0 0-.177.055.269.269 0 1 0 .319.434.269.269 0 0 0 .059-.377.273.273 0 0 0-.19-.11l-.011-.002zm2.14-1.557a.275.275 0 0 0-.189.053.269.269 0 0 0-.057.378.269.269 0 0 0 .377.057.269.269 0 0 0 .058-.378.267.267 0 0 0-.176-.107l-.013-.003zm2.13-1.558h-.015a.265.265 0 0 0-.174.053.269.269 0 1 0 .318.434.269.269 0 0 0 .058-.377.268.268 0 0 0-.187-.11zM12.095 51.27a.27.27 0 0 0-.187.054.269.269 0 1 0 .318.434.269.269 0 0 0 .057-.377.267.267 0 0 0-.175-.108l-.013-.002zm2.13-1.557a.275.275 0 0 0-.19.052.269.269 0 0 0-.056.378.269.269 0 0 0 .377.057.269.269 0 0 0 .057-.377.267.267 0 0 0-.176-.108l-.012-.002zm2.129-1.559h-.014a.273.273 0 0 0-.176.053.269.269 0 0 0-.058.377.269.269 0 0 0 .378.058.269.269 0 0 0 .057-.378.268.268 0 0 0-.187-.11zm2.13-1.558h-.015a.273.273 0 0 0-.176.053.269.269 0 0 0-.057.377.269.269 0 0 0 .378.057.269.269 0 0 0 .057-.377.268.268 0 0 0-.187-.11zm2.116-1.559a.275.275 0 0 0-.179.053.269.269 0 0 0-.057.378.269.269 0 0 0 .378.057.266.266 0 0 0 .056-.376.267.267 0 0 0-.188-.11l-.01-.002zm2.127-1.557a.275.275 0 0 0-.176.054.266.266 0 0 0-.057.376.269.269 0 1 0 .434-.319.273.273 0 0 0-.19-.11l-.01-.002zm2.141-1.557a.275.275 0 0 0-.19.053.269.269 0 0 0-.056.377.269.269 0 0 0 .377.057.269.269 0 0 0 .057-.377.267.267 0 0 0-.176-.108l-.012-.002zm2.13-1.558a.275.275 0 0 0-.19.053.269.269 0 0 0-.057.377.266.266 0 0 0 .376.057.269.269 0 0 0-.117-.485l-.012-.002zm2.129-1.558-.015-.001a.273.273 0 0 0-.176.053.269.269 0 0 0-.057.378.269.269 0 0 0 .378.057.269.269 0 0 0 .057-.378.268.268 0 0 0-.187-.11zm2.128-1.559h-.015a.265.265 0 0 0-.174.053.269.269 0 1 0 .319.434.269.269 0 0 0 .059-.377.273.273 0 0 0-.189-.11zm2.115-1.558a.27.27 0 1 0 .144.487.266.266 0 0 0 .057-.375.273.273 0 0 0-.19-.11l-.01-.003zm2.13-1.559a.27.27 0 0 0-.176.053.269.269 0 0 0-.06.378.269.269 0 1 0 .435-.319.267.267 0 0 0-.188-.11l-.011-.002zm2.14-1.556a.275.275 0 0 0-.188.053.269.269 0 0 0-.058.377.269.269 0 0 0 .378.057.269.269 0 0 0 .057-.377.267.267 0 0 0-.176-.108l-.012-.002zm2.129-1.558a.27.27 0 0 0-.188.053.269.269 0 1 0 .319.434.269.269 0 0 0 .057-.377.267.267 0 0 0-.176-.108l-.013-.002zm2.131-1.558h-.015a.273.273 0 0 0-.176.052.269.269 0 0 0-.057.378.269.269 0 0 0 .378.057.269.269 0 0 0 .057-.378.268.268 0 0 0-.187-.11zm2.128-1.559h-.015a.273.273 0 0 0-.176.053.269.269 0 0 0-.057.377.269.269 0 0 0 .377.057.269.269 0 0 0 .058-.377.268.268 0 0 0-.187-.11zm2.115-1.558a.27.27 0 1 0 .144.487.266.266 0 0 0 .057-.375.273.273 0 0 0-.19-.11l-.011-.002zm2.13-1.559a.275.275 0 0 0-.178.053.269.269 0 0 0-.057.378.269.269 0 1 0 .434-.319.267.267 0 0 0-.188-.11l-.011-.002z"
     id="path136"
     style="fill:#cbeeff;fill-opacity:1" />
</svg>
